<?xml version="1.0" encoding="UTF-8"?>
<svg id="svg8" xmlns="http://www.w3.org/2000/svg" xmlns:svg="http://www.w3.org/2000/svg" xmlns:sodipodi="http://sodipodi.sourceforge.net/DTD/sodipodi-0.dtd" xmlns:rdf="http://www.w3.org/1999/02/22-rdf-syntax-ns#" xmlns:inkscape="http://www.inkscape.org/namespaces/inkscape" xmlns:dc="http://purl.org/dc/elements/1.1/" xmlns:cc="http://creativecommons.org/ns#" version="1.1" viewBox="0 0 530.65 464.42">
  <!-- Generator: Adobe Illustrator 30.0.0, SVG Export Plug-In . SVG Version: 2.1.1 Build 123)  -->
  <defs>
    <style>
      .st0 {
        fill: #fff;
      }
    </style>
  </defs>
  <sodipodi:namedview id="base" bordercolor="#666666" borderopacity="1.0" fit-margin-bottom="0" fit-margin-left="0" fit-margin-right="0" fit-margin-top="0" inkscape:current-layer="layer1" inkscape:cx="358.22233" inkscape:cy="236.75807" inkscape:document-units="mm" inkscape:pageopacity="0.0" inkscape:pageshadow="2" inkscape:window-height="691" inkscape:window-maximized="1" inkscape:window-width="1280" inkscape:window-x="0" inkscape:window-y="1" inkscape:zoom="0.35" pagecolor="#ffffff" showgrid="false"/>
  <sodipodi:namedview id="base" bordercolor="#666666" borderopacity="1.0" fit-margin-bottom="0" fit-margin-left="0" fit-margin-right="0" fit-margin-top="0" inkscape:current-layer="layer1" inkscape:cx="358.22233" inkscape:cy="236.75807" inkscape:document-units="mm" inkscape:pageopacity="0.0" inkscape:pageshadow="2" inkscape:window-height="691" inkscape:window-maximized="1" inkscape:window-width="1280" inkscape:window-x="0" inkscape:window-y="1" inkscape:zoom="0.35" pagecolor="#ffffff" showgrid="false"/>
  <g id="layer1" inkscape:groupmode="layer" inkscape:label="Layer 1">
    <g id="g110">
      <path id="path124" class="st0" d="M0,417.59v-46.83h530.64v93.67H0v-46.83ZM70.73,438.23c8.58-2.89,13.76-10.67,13.78-20.68,0-3.73-1.32-9.19-2.88-11.85-3.83-6.54-9.9-9.79-18.25-9.79-5.07,0-8.55.98-12.29,3.46-2.95,1.96-4.59,3.94-6.44,7.76-3.64,7.53-2.93,17.21,1.76,24.02,3.1,4.5,8,7.19,14.75,8.1,2.22.3,7.2-.23,9.56-1.03h0ZM60.15,428.37c-4.43-2.26-6.35-9.45-4.38-16.35.96-3.35,4.3-5.98,7.61-5.98,4.99,0,8.5,4.77,8.5,11.55,0,8.41-5.84,13.78-11.73,10.78h0ZM173.18,438.67c5.07-1.17,9.66-4.5,12.22-8.87,4.75-8.11,4.08-19.7-1.57-26.83-6.06-7.65-19.55-9.5-28.25-3.88-8.9,5.75-11.86,19.15-6.55,29.68,4.13,8.19,14.03,12.25,24.15,9.91h0ZM164.46,428.55c-1.74-.79-3.9-3.29-4.63-5.37-.33-.93-.59-3.42-.59-5.59,0-4.48.61-6.62,2.5-8.77,1.72-1.96,3.35-2.77,5.55-2.77,4.82,0,7.91,3.49,8.53,9.64.54,5.3-1.06,9.92-4.26,12.29-1.48,1.1-5.28,1.41-7.11.58h0ZM250.07,438.67c8.09-1.66,12.32-6.26,12.36-13.45.02-3.83-.89-5.99-3.49-8.27-2.19-1.92-4.19-2.75-11.01-4.57-3.17-.84-6.19-1.75-6.71-2.03-3.98-2.06-3-5.07,1.79-5.48,2.67-.23,4.93.94,5.51,2.86l.42,1.37h11.89l-.34-2.16c-1.14-7.19-6.81-10.98-16.52-11.04-6.96-.04-11.69,1.8-14.88,5.8-1.84,2.3-2.8,6.71-2.16,9.89.98,4.86,4.19,7.15,13.96,9.96,8.24,2.36,9.76,3.42,8.74,6.09-1.25,3.29-8.05,3.66-10.63.59-.65-.77-1.12-1.87-1.12-2.62v-1.29l-6.43.12-6.43.12.13,1.52c.42,4.78,3.17,8.69,7.68,10.91,4.56,2.25,11.27,2.9,17.24,1.67h0ZM307.76,438.23c8.63-2.88,13.76-10.52,13.76-20.49,0-4.17-.62-7.21-2.17-10.6-3.65-8.02-12.48-12.46-22.08-11.13-11.02,1.53-17.76,9.72-17.76,21.58s6.71,20.05,18.66,21.67c2.22.3,7.2-.23,9.58-1.03h0ZM297.34,428.41c-3.64-1.92-5.17-5.12-5.18-10.82,0-4.21.91-7.13,2.91-9.31,2.23-2.42,6.23-2.93,9.22-1.18,3.89,2.28,5.71,9.24,3.98,15.21-1.59,5.47-6.71,8.32-10.93,6.1h0ZM364.86,438.48c3.33-.85,5.86-2.34,7.79-4.6,2.96-3.45,3.05-4.06,3.31-21.41l.23-15.58h-6.43s-6.43,0-6.43,0v13.61c-.02,12.43-.09,13.77-.85,15.44-.98,2.16-2.7,3.19-5.34,3.19-2.43,0-4.55-1.31-5.49-3.38-.64-1.41-.74-3.39-.74-15.24v-13.61h-6.46s-6.46,0-6.46,0l.17,15.14c.16,14.26.22,15.27,1.1,17.47,1.78,4.45,3.77,6.5,7.9,8.17,4.43,1.79,12.39,2.15,17.69.8h0ZM128.56,417.59l6.39-20.48-6.34-.12c-4.19-.08-6.44.04-6.63.35-.16.26-1.53,5.2-3.04,10.97-3.43,13.12-3.77,14.24-4.07,13.41-.13-.36-1.67-6.09-3.42-12.74l-3.19-12.08h-6.47c-5,0-6.43.11-6.27.53.11.3,2.91,9.62,6.21,20.7l6.01,20.16,7.22-.12,7.22-.12,6.39-20.48h0ZM405.51,426.96c-.11-10.49.06-12.57.87-10.55.17.43,2.96,5.52,6.19,11.32l5.88,10.54h6.21s6.21.02,6.21.02v-41.39h-11.75l-.12,11.22-.12,11.22-6.09-11.22-6.09-11.22h-13.31v41.39h12.23l-.12-11.33ZM474.19,437.42c6.28-1.61,10.57-5.55,12.53-11.52.83-2.53,1.01-4.02,1.01-8.31,0-3.14-.24-6.1-.61-7.41-1.58-5.69-5.3-10.18-9.98-12.06-2.37-.95-3.1-1.01-15.65-1.14l-13.17-.14-.12,20.72-.12,20.72h11.37c9.9,0,11.8-.11,14.74-.86h0ZM460.94,417.63v-10.28h3.59c4.31.02,6.51.87,8.5,3.28,3.62,4.39,2.67,12.88-1.77,15.81-1.56,1.03-2.27,1.19-6.05,1.32l-4.28.15v-10.28h0ZM0,178.62V0h530.64v357.25H0v-178.62ZM178.39,310.63c11.62-35.36,18.16-66.26,21.4-101.07.84-9.05,1.21-42.43.58-52.28-2.27-35.23-9.13-69.7-21.4-107.5l-4-12.31H42.76l2.81,8.39c28.62,85.3,30.71,161.69,6.69,245.26-2.11,7.35-8.46,27.19-9.38,29.32-.13.29,22,.4,66.01.32l66.2-.11,3.29-10.02ZM321,313.79c26.8-79.54,30.59-151.14,12.05-227.44-3.61-14.88-7.82-29.23-13.18-44.97l-1.26-3.7-66.07-.11c-36.34-.06-66.07-.05-66.07.03s.97,2.97,2.15,6.43c13.65,39.93,21.84,81.24,23.45,118.25.56,12.92.26,37.16-.54,44.09-.11.91-.4,4.11-.66,7.1-2.55,29.55-9.71,62.8-20.78,96.5-1.81,5.51-3.37,10.22-3.46,10.46-.11.29,22.01.4,65.95.33l66.11-.11,2.31-6.86ZM464.58,312.48c26.75-75.73,30.68-147.53,12.26-223.82-3.44-14.24-6.2-23.8-11.66-40.41l-3.54-10.78h-131.63l3.57,10.78c11.53,34.84,18.21,66.53,21.36,101.18.97,10.73,1.11,46.97.22,57.29-2.56,29.59-7.31,55.29-15.5,83.87-2.2,7.67-8.05,26.24-9.31,29.52-.17.43,13.13.54,65.57.54h65.78l2.89-8.17Z" inkscape:connector-curvature="0"/>
      <path id="path122" class="st0" d="M0,417.59v-46.83h530.64v93.67H0v-46.83ZM70.14,438.44c6.17-1.71,10.85-6.22,13.1-12.61,1.29-3.67,1.61-10.41.67-14.12-1.58-6.21-5.38-11.25-10.29-13.64-2.64-1.29-7.52-2.46-10.23-2.46s-7.59,1.17-10.23,2.46c-8.11,3.96-12.48,14.61-10.27,25.03,2.62,12.34,14.32,18.93,27.26,15.35h0ZM60.34,428.31c-3.43-1.57-5.14-4.96-5.19-10.29-.04-4.24.71-7,2.48-9.16,3.99-4.84,11.24-3.15,13.45,3.13.76,2.16.76,9.02,0,11.18-1.72,4.88-6.4,7.12-10.73,5.13ZM175.23,438.08c6.64-2.28,11.23-7.67,12.79-14.99,1.73-8.15-.34-16.25-5.47-21.43-6.73-6.8-18.7-7.92-27.07-2.55-5.43,3.48-8.5,9.22-8.96,16.74-.76,12.39,5.79,21.3,17.1,23.3,3.13.55,8.25.08,11.6-1.07h0ZM164.47,428.45c-3.76-1.95-5.22-5-5.23-10.86,0-4.8.88-7.38,3.27-9.53,2.48-2.24,6.36-2.65,8.95-.95,2.55,1.67,4.56,6.29,4.56,10.48,0,2.64-1.2,6.74-2.44,8.37-2.16,2.84-6.27,3.96-9.11,2.49ZM251.29,438.45c6.73-1.75,10.51-5.79,11.25-12.03.43-3.7-.63-6.72-3.22-9.14-2.39-2.23-4.76-3.23-12.66-5.34-2.96-.79-5.9-1.82-6.54-2.29-1.3-.97-1.71-2.47-.93-3.41.79-.95,3.63-1.65,5.37-1.32,1.88.35,4.19,2.2,4.19,3.35,0,.78.39.83,6.1.83,3.35,0,6.1-.15,6.1-.34,0-1.39-1.54-5.72-2.51-7.07-5.42-7.53-22.08-8.06-28.55-.9-2.79,3.09-3.9,7.31-2.95,11.27,1.08,4.51,4.25,6.72,13.53,9.43,7.03,2.05,7.7,2.33,8.74,3.65,2.2,2.8-1.63,5.78-6.47,5.06-2.61-.39-4.88-2.47-4.88-4.49v-1.35h-13.02l.23,1.63c1.11,7.86,5.66,11.7,15.84,13.35,1.76.29,7.87-.23,10.36-.88h0ZM307.65,438.3c8.68-2.7,13.86-10.45,13.86-20.71,0-6.81-1.9-11.79-6.12-16.01-8.78-8.78-25.09-7.54-31.96,2.43-4.77,6.92-5.38,16.74-1.52,24.59,4.32,8.79,15.32,12.94,25.74,9.69ZM297.34,428.31c-2.16-.99-2.97-1.89-4.18-4.62-1.42-3.22-1.35-9.24.15-12.52,2.44-5.33,8.04-6.78,12.09-3.12,2.39,2.16,3.27,4.73,3.26,9.53,0,4.5-.61,6.62-2.54,8.82-2.4,2.74-5.51,3.41-8.78,1.91h0ZM364.66,438.63c4.62-1.12,8.34-4.08,10.08-8.01,1.34-3.03,1.73-8.27,1.59-21.52l-.13-12.42-6.43-.09-6.43-.09v13.82c-.02,12.63-.09,13.97-.85,15.64-1.34,2.95-4.64,4-8.06,2.57-3.02-1.26-3.04-1.4-3.29-17.44l-.22-14.4-6.43-.09-6.43-.09v13.85c0,14.7.28,17.66,1.98,21.01,2.37,4.67,6.37,6.97,13.92,7.98,1.95.26,8.44-.17,10.67-.71h0ZM128.52,418c3.47-11.15,6.38-20.54,6.45-20.88.11-.5-1.01-.61-6.38-.61h-6.51l-1.32,4.88c-.73,2.68-2.25,8.36-3.38,12.61-1.83,6.9-2.78,9.25-2.81,6.97,0-.42-1.45-6.06-3.21-12.53l-3.19-11.76-6.38-.09c-3.51-.05-6.38.03-6.38.17,0,.31.27,1.21,6.81,23.23,2.74,9.23,5.09,17.12,5.22,17.54.2.69.95.76,7.49.75h7.27s6.32-20.28,6.32-20.28ZM405.71,426.97l.12-11.31,6.32,11.3,6.32,11.3h6.32s6.32.01,6.32.01l-.1-20.8-.1-20.8-5.78-.09-5.78-.09-.22,11.39-.22,11.39-6.14-11.31-6.14-11.31h-12.98l-.11,20.8-.11,20.8h12.19l.12-11.31h0ZM473.22,437.8c6.01-1.25,11.11-5.3,12.98-10.29,3.52-9.4,1.68-20.86-4.23-26.3-4.37-4.03-8.72-4.87-24.06-4.66l-9.63.13-.1,20.8-.1,20.8h11.41c6.65,0,12.38-.2,13.72-.48h0ZM460.94,417.64v-10.29h3.16c5.46,0,8.1,1.31,10.03,4.96.75,1.41.96,2.54.96,5.28,0,4.35-1.17,7.09-3.81,8.84-1.53,1.01-2.29,1.18-6.05,1.33l-4.3.17v-10.29h0ZM0,178.62V0h530.64v357.25H0v-178.62ZM176.8,315.42c13.57-39.43,21.24-76.78,23.6-115.02.57-9.22.57-32.98,0-42.26-2.24-36.66-9.98-74.86-22.96-113.38l-2.46-7.3H42.76l2.6,7.73c28.79,85.73,30.91,162.81,6.77,246.26-2.34,8.09-8.03,25.92-9.22,28.86-.29.73,2.95.76,65.85.65l66.16-.11,1.87-5.45ZM320.32,315.86c17.27-50.52,24.98-96.12,24.16-142.9-.73-41.59-7.28-78.16-22.39-125.15l-3.33-10.35h-66.14c-36.38,0-66.14.06-66.14.12s1.18,3.65,2.63,7.95c21.49,63.99,28.03,123.98,20,183.4-3.68,27.25-10.87,57.26-20.43,85.3-1.21,3.54-2.2,6.53-2.2,6.65s29.73.15,66.07.09l66.07-.11,1.71-5.01ZM462.26,319.09c.47-1.1,2.51-6.93,4.53-12.96,16.49-49.21,23.2-94.63,21.07-142.54-1.61-36.17-9.39-75.69-22.87-116.21l-3.3-9.91h-131.72l2.34,6.86c13.09,38.45,20.91,76.95,23.19,114.25.57,9.36.57,32.67-.01,41.82-2.31,36.65-9.32,71.65-22.17,110.66-1.7,5.15-3.08,9.51-3.08,9.69s29.51.33,65.58.33h65.58l.86-2Z" inkscape:connector-curvature="0"/>
      <path id="path120" class="st0" d="M0,417.59v-46.83h530.64v93.67H0v-46.83ZM71.23,438.11c8.5-3.08,13.27-10.44,13.28-20.46,0-6.89-2.13-12.41-6.36-16.41-7.71-7.29-21.3-7.44-29.14-.32-8.25,7.49-9.05,22.6-1.68,31.59,2.68,3.27,7.17,5.78,11.92,6.67,3.17.59,8.79.09,11.98-1.06h0ZM60.57,428.44c-.83-.36-1.88-.99-2.33-1.4-3.26-2.95-4.1-11.74-1.59-16.66,1.58-3.09,4.68-4.66,8.19-4.13,5.25.79,8.31,8.14,6.44,15.45-.87,3.41-2.4,5.51-4.78,6.6-2.16.98-3.89,1.02-5.92.14h0ZM174.92,438.28c6.26-2.15,10.47-6.49,12.7-13.07,1.21-3.57,1.09-12.31-.21-15.87-3.57-9.76-12.83-15.05-23.45-13.4-10.88,1.69-17.54,9.91-17.56,21.66-.02,11.32,6.45,19.54,16.98,21.56,2.9.56,8.63.12,11.54-.88ZM164.42,428.3c-3.45-1.57-5.14-5.09-5.14-10.71,0-1.92.26-4.27.58-5.23,1.72-5.17,6.61-7.65,10.84-5.49,3.5,1.79,5.03,5.05,5.03,10.72s-1.6,9.09-5.16,10.73c-2.21,1.02-3.89,1.01-6.15-.01h0ZM251.43,438.45c3.59-1.07,6.16-2.53,7.98-4.54,2.43-2.69,3.04-4.42,3.06-8.7.02-3.26-.12-3.94-1.15-5.69-1.98-3.36-5.42-5.26-12.99-7.15-8.3-2.07-10.12-3.12-9.33-5.36.52-1.48,3.12-2.44,5.52-2.04,2.02.34,4.24,2.12,4.24,3.4,0,.92.14.94,6.13.94h6.13l-.28-1.96c-.91-6.48-5.51-10.35-13.55-11.43-6.81-.91-13.26.73-16.95,4.32-4.21,4.09-4.92,11.68-1.45,15.63,2.06,2.35,4.31,3.43,12.02,5.77,3.9,1.18,7.48,2.5,7.95,2.93,1.12,1.01,1.13,3.31.02,4.32-2.03,1.84-7.38,1.71-9.43-.22-.6-.57-1.19-1.73-1.34-2.67l-.27-1.66h-13.01l.3,2.07c.96,6.7,6,11.31,13.95,12.75,2.9.52,9.55.15,12.43-.71h0ZM304.53,439.13c7.96-1.27,14.25-7.06,16.32-15.03.86-3.29.86-9.75,0-13.03-2.16-8.28-8.48-13.88-17.08-15.14-13.66-1.99-24.49,7.58-24.49,21.65s11,23.82,25.25,21.54h0ZM297.09,428.12c-3.79-2-5.59-7.36-4.63-13.8,1.1-7.38,8.01-10.72,12.95-6.26,2.39,2.16,3.27,4.73,3.26,9.53,0,5.86-1.41,8.84-5.04,10.69-2.21,1.13-4.19,1.08-6.54-.16h0ZM364.38,438.73c4.46-1,8.16-3.64,9.91-7.08,1.8-3.52,2.11-6.72,2.12-21.36v-13.83s-6.5,0-6.5,0h-6.51l-.13,14.27c-.15,15.91-.22,16.32-3.12,17.69-3.09,1.47-6.74.43-8.19-2.33-.73-1.38-.8-2.78-.8-15.58v-14.06h-13.13l.16,15.58c.14,13.55.26,15.83.92,17.54,2.13,5.48,6.21,8.5,12.93,9.58,2.85.46,9.43.23,12.36-.42h0ZM128.61,417.75c3.54-11.35,6.44-20.78,6.45-20.96,0-.18-2.92-.33-6.5-.33-5.82,0-6.53.08-6.74.76-.26.86-4,14.9-5.5,20.7-.55,2.1-1.1,3.71-1.24,3.57-.13-.13-1.72-5.77-3.53-12.53l-3.29-12.29-6.42-.12c-4.12-.08-6.42.04-6.42.32,0,.56,11.62,39.58,12.13,40.75.36.82.77.87,7.5.81l7.12-.06,6.44-20.64ZM405.61,427.21c0-6.21.15-11.14.33-10.97.18.18,3.08,5.22,6.44,11.2l6.11,10.87,6.31.04,6.31.04v-41.72l-5.99-.12-5.99-.12v11.19c0,6.16-.15,11.06-.33,10.89-.18-.17-2.98-5.15-6.22-11.07l-5.89-10.77-6.63-.12-6.63-.12v42.06h12.2v-11.29ZM474.14,437.59c9.07-2.35,13.78-9.12,13.8-19.84.01-7.12-1.48-11.76-5.03-15.58-4.54-4.9-8.59-5.82-24.81-5.62l-10.02.12-.11,20.48c-.06,11.26-.04,20.67.05,20.91.29.76,22.96.35,26.12-.47h0ZM460.94,417.59v-10.24h2.94c7,0,10.47,2.7,11.21,8.72.6,4.87-1.18,8.88-4.76,10.67-1.78.9-2.79,1.08-5.77,1.08h-3.62v-10.24h0ZM.29,356.96C.13,356.8,0,276.42,0,178.33V0h530.65l-.11,178.52-.11,178.52-264.92.11c-145.71.06-265.05-.02-265.21-.18h0ZM177.67,313.14c17.29-52.02,24.51-97.26,23.13-145.05-1.13-39.27-8.49-78.54-22.88-122.02l-2.85-8.6H42.78l.6,1.85c.33,1.02,1.98,6.12,3.66,11.33,16.49,50.98,23.59,99.32,21.34,145.4-1.85,37.97-9.33,76.04-22.83,116.32-1.57,4.67-2.85,8.54-2.85,8.6,0,.06,29.77.11,66.16.11h66.16l2.64-7.95ZM322.04,310.85c12.43-37.18,19.62-73.09,22.12-110.44.39-5.81.25-41.52-.18-45.31-.12-1.08-.53-5.49-.91-9.8-2.66-30.44-9.25-61.29-20.55-96.17l-3.77-11.65h-66.19c-52.77,0-66.15.11-65.98.54.11.3,1.43,4.27,2.92,8.82,13.02,39.81,19.79,73.56,22.24,110.88.59,8.91.58,33.74-.01,43.46-2.2,36.18-9.95,74.19-22.9,112.28-1.3,3.83-2.36,7.11-2.36,7.3s29.75.29,66.11.23l66.11-.11,3.35-10.02ZM464.56,312.81c21.73-62.04,28.27-118.41,20.75-178.84-3.33-26.75-9.98-55.34-19.84-85.26l-3.7-11.24h-131.82l1.48,4.25c2.42,6.93,7.32,22.93,9.68,31.65,8.31,30.61,12.85,58.21,14.44,87.61.48,8.85.33,37.96-.2,41.39-.11.72-.32,3.17-.47,5.45-.8,12.38-3.75,33.42-6.72,47.92-3.92,19.11-8.66,36.63-15.25,56.31l-3.03,9.04h131.8l2.9-8.28Z" inkscape:connector-curvature="0"/>
      <path id="path118" class="st0" d="M.29,464.13c-.16-.16-.29-21.24-.29-46.83v-46.54h530.65l-.11,46.73-.11,46.73-264.92.11c-145.71.06-265.05-.02-265.21-.18h0ZM68.8,438.92c9.82-2.31,15.74-10.35,15.79-21.41.03-6.79-2.21-12.34-6.61-16.42-8.08-7.48-21.38-7.38-29.41.22-8.41,7.95-8.51,23.94-.21,32.24,5.17,5.17,12.79,7.18,20.45,5.37h0ZM61.11,428.65c-1.98-.57-4.23-2.98-5.07-5.43-.93-2.72-.93-8.52,0-11.23,1.82-5.33,7.21-7.43,11.55-4.5,3.11,2.1,4.8,7.78,3.86,12.97-.85,4.68-2.4,6.94-5.52,8.05-1.92.68-2.85.71-4.82.14h0ZM172.92,438.92c9.8-2.31,15.72-10.38,15.72-21.41s-5.77-18.72-15.48-21.25c-11.62-3.03-23.17,3.53-26.11,14.82-.85,3.26-.86,9.74-.02,12.97,2.95,11.32,14.01,17.68,25.89,14.88h0ZM165.46,428.72c-3.38-1.07-5.43-4-5.94-8.45-.62-5.45.68-10.42,3.24-12.44,3.81-3,8.79-1.93,11.36,2.44,1.16,1.97,1.23,2.39,1.23,7.11,0,4.39-.13,5.27-1.03,7.11-1.66,3.37-5.62,5.27-8.86,4.24ZM248.55,439.16c4.61-.75,7.61-2.14,10.31-4.78,3.01-2.94,4.09-5.92,3.74-10.31-.52-6.49-4.03-9.2-15.74-12.18-7.47-1.9-9.55-3.59-7.15-5.82.75-.7,1.54-.89,3.74-.89,2.5,0,2.91.13,4.06,1.27.7.7,1.27,1.68,1.27,2.18,0,.87.21.9,6.16.9h6.16l-.27-2.07c-.91-6.89-6.47-11.19-15.17-11.75-11.01-.71-18.39,4.15-18.99,12.52-.26,3.6.37,5.65,2.43,7.93,2.08,2.3,4.38,3.4,11.56,5.51,6.48,1.91,8.7,2.94,8.93,4.16.28,1.46-.38,2.87-1.66,3.53-1.65.85-5.79.85-7.44,0-1.37-.71-2.6-2.65-2.6-4.11,0-.86-.24-.89-6.54-.89h-6.54v1.01c0,1.78,1.36,5.66,2.62,7.5,3.5,5.08,12.37,7.73,21.12,6.31h0ZM308.24,438.26c6.56-2.45,11.2-7.78,12.88-14.79.69-2.86.68-8.95-.02-11.98-2.16-9.43-10.52-15.92-20.47-15.9-12.66.03-21.37,9-21.37,21.99,0,10.58,5.8,18.68,15.21,21.23,3.89,1.06,10.11.8,13.76-.56h0ZM298.11,428.65c-2.2-.64-4.34-3.08-5.16-5.9-1.02-3.5-.7-9.24.66-12.06,1.88-3.89,5.98-5.53,9.71-3.88,3.67,1.62,5.34,5.08,5.31,10.99-.03,5.96-2.19,9.77-6.17,10.87-1.89.52-2.43.52-4.34-.03h0ZM365.89,438.36c4.92-1.57,7.73-4.24,9.48-9.01.7-1.92.82-3.98.96-17.54l.16-15.36h-13.08l-.14,14.35c-.13,13.71-.18,14.4-1.04,15.58-1.37,1.87-3.55,2.84-5.73,2.57-2.47-.31-3.46-1-4.49-3.11-.8-1.65-.86-2.72-.86-15.58v-13.8h-13.12l.14,15.58c.13,14.96.18,15.67,1.12,18.01.54,1.34,1.67,3.24,2.53,4.24,1.8,2.1,5.93,4.23,9.39,4.85,3.7.66,11.49.25,14.69-.77h0ZM128.4,418.68c3.41-10.9,6.32-20.37,6.47-21.03l.27-1.21-6.64.12-6.64.12-3.36,12.63c-2.04,7.67-3.46,12.29-3.61,11.76-.14-.48-1.46-5.38-2.93-10.89-1.47-5.51-2.92-10.8-3.22-11.76l-.55-1.74-6.39-.12c-4.82-.09-6.39.01-6.39.41,0,.29,2.57,9.17,5.72,19.73,3.15,10.56,5.9,19.83,6.12,20.62l.4,1.43,7.27-.12,7.27-.12,6.2-19.82ZM405.71,427.3l.12-11.42,6.33,11.31,6.33,11.31,6.41.12,6.41.12v-42.31l-6.21.12-6.21.12v10.98c0,6.04-.12,10.84-.28,10.67-.15-.17-2.77-4.91-5.83-10.54-3.05-5.63-5.75-10.48-5.99-10.78-.31-.39-2.25-.54-6.92-.54h-6.48v42.26h12.18l.12-11.42ZM474.44,437.65c9.33-2.99,13.65-9.41,13.61-20.27-.04-11.35-5.32-18.71-14.67-20.44-1.45-.27-7.62-.48-14.05-.48h-11.47v42.35l12.09-.2c9.95-.16,12.51-.33,14.49-.97h0ZM460.94,417.59v-10.36l3.82.22c2.72.16,4.35.49,5.66,1.16,6.36,3.24,6.28,14.91-.11,18.24-.78.41-2.92.76-5.34.89l-4.03.21v-10.36ZM.11,178.52L.22.22h530.21l.11,178.3.11,178.3H0l.11-178.3ZM178.35,311.18c19.21-58.23,26.04-110.61,21.38-163.92-2.93-33.53-11.31-71.69-23.12-105.32l-1.57-4.47h-66.22c-52.8,0-66.18.11-66.01.54,1.25,3.26,7.1,21.8,9.24,29.3,9.21,32.18,13.89,59.07,16.16,92.8.38,5.63.38,32.68,0,38.34-2.67,40.05-9.12,72.67-22.28,112.6-1.78,5.4-3.24,9.87-3.24,9.93s29.79.11,66.19.11h66.19l3.27-9.91ZM321.85,311.61c12.2-36.72,18.75-67.92,21.99-104.67.88-9.95.73-47.72-.23-57.94-3.32-35.53-10.1-67.19-22.18-103.58l-2.64-7.95h-132.6l2.34,6.86c11.84,34.69,19.51,70.32,22.57,104.89.95,10.77,1.32,38.54.66,49.88-2.17,37.36-9.09,72.08-22.5,112.87-1.54,4.69-2.8,8.66-2.8,8.82s29.75.3,66.12.3h66.12l3.15-9.48ZM463.55,315.97c25.02-69.9,30.95-134.11,18.69-202.48-3.96-22.09-11.45-50.45-18.72-70.96l-1.8-5.06h-131.82l3.42,10.39c19.9,60.44,26.47,115.49,20.43,171.28-3.22,29.75-10.02,60.14-20.51,91.68-1.68,5.05-3.15,9.42-3.28,9.72-.18.43,13.14.54,65.77.54h65.99l1.83-5.12Z" inkscape:connector-curvature="0"/>
      <path id="path116" class="st0" d="M.4,464.24c-.1-.1-.13-21.18-.07-46.83l.11-46.65h529.76l.11,46.65c.06,25.66.03,46.73-.07,46.83-.24.24-529.61.24-529.85,0h0ZM69.07,438.92c5.11-1.32,9.08-4.07,12-8.31,3.08-4.47,4.38-11.19,3.33-17.22-1.93-11.1-9.83-17.79-21-17.79-6.29,0-11.32,2.01-15.2,6.08-4.13,4.33-5.93,9.16-5.93,15.91s1.79,11.55,5.72,15.7c5.01,5.3,13.56,7.58,21.09,5.63ZM62.3,428.85c-5.37-1.74-7.27-5.2-6.89-12.49.24-4.52,1.45-7.27,3.95-8.92,3.34-2.21,7.99-1.28,10.24,2.06,1.5,2.22,1.96,4.62,1.78,9.18-.14,3.55-.34,4.44-1.35,6.17-.65,1.11-1.82,2.4-2.6,2.87-1.51.91-4.05,1.46-5.12,1.12h0ZM173.16,438.92c7.33-1.91,12.56-7.05,14.78-14.55.44-1.5.7-3.99.7-6.78,0-6.87-1.73-11.51-5.93-15.91-3.88-4.06-8.91-6.08-15.2-6.08s-10.68,1.72-14.76,5.64c-2.91,2.79-4.72,5.84-5.73,9.66-.79,2.97-.8,10.37-.03,13.29,1.92,7.2,7.83,13.09,14.86,14.8,3.08.75,8.3.72,11.31-.06h0ZM165.71,428.72c-4.62-1.12-7.02-6.53-6.17-13.91.62-5.3,3.64-8.52,8.01-8.52,4.79,0,7.6,3.56,7.94,10.07.39,7.45-1.97,11.59-7.11,12.47-.72.12-1.92.07-2.67-.11ZM249.79,438.94c8.16-1.73,12.42-6.01,12.83-12.88.16-2.73.03-3.67-.78-5.56-1.79-4.15-4.9-6.04-13.77-8.34-6.06-1.57-8.33-2.49-8.93-3.6-1.04-1.94.81-3.39,4.32-3.39,2.66,0,4.81,1.27,5.16,3.05l.26,1.31h12.21l-.25-2.14c-.88-7.45-7.23-11.8-17.22-11.8-8.2,0-14.85,3.84-16.57,9.57-.69,2.3-.61,6.59.15,8.41,1.52,3.65,4.64,5.52,13.67,8.2,7.45,2.21,8.78,2.94,8.78,4.75,0,2.52-2.66,3.85-6.77,3.38-2.75-.31-4.03-1.3-4.65-3.61l-.52-1.95h-13.01l.27,2.26c.93,7.85,8.03,12.86,18.37,12.94,1.92.02,4.83-.26,6.46-.6h0ZM305.49,439.11c7.09-1.47,13.01-6.83,15.13-13.69,3.16-10.22-.08-21.12-7.8-26.27-3.43-2.29-6.22-3.17-10.92-3.44-4.6-.27-7.8.36-11.68,2.31-6.97,3.49-10.93,10.53-10.95,19.49-.02,10.7,5.51,18.54,15.02,21.27,3.04.87,7.9,1.02,11.2.33ZM298.28,428.5c-2.07-.74-3.57-2.11-4.79-4.37-1.31-2.43-1.37-10.45-.11-12.99,2.37-4.78,7.19-6.32,11.27-3.62.82.54,1.93,1.97,2.65,3.42,1.06,2.12,1.25,3.02,1.26,6.1.02,4.08-.53,6.52-1.96,8.64-1.82,2.71-5.32,3.9-8.32,2.83h0ZM363.91,438.95c5.69-1.2,9.38-4.12,11.3-8.91.93-2.33.98-3.09,1.12-18.01l.15-15.58h-13.07l-.14,14.05c-.15,15.35-.24,15.93-2.81,17.62-1.48.97-4.93.97-6.42,0-2.66-1.74-2.66-1.77-2.8-17.38l-.13-14.29h-13.08l.13,15.79.13,15.79,1.26,2.73c2.74,5.94,8.27,8.71,17.47,8.77,2.16.01,5.25-.25,6.88-.6ZM122.2,438.29c.4-.65,12.86-40.65,12.86-41.29,0-.44-1.46-.53-6.62-.44l-6.62.12-3.26,12.32c-1.79,6.78-3.39,12.07-3.55,11.76s-1.73-5.9-3.48-12.43l-3.19-11.87h-6.72c-6.22,0-6.7.06-6.42.76.16.42,2.54,8.31,5.29,17.54,2.75,9.23,5.48,18.39,6.08,20.37l1.09,3.59h7.15c4.21,0,7.26-.18,7.41-.43h0ZM405.63,427.28c.02-7.64.17-11.22.45-10.78.23.36,3.12,5.46,6.4,11.33l5.98,10.67,6.42.12,6.42.12v-42.28h-12.63v11s0,11,0,11l-5.99-11-5.99-11h-6.64s-6.64,0-6.64,0v42.26h12.2l.03-11.44h0ZM472.42,438.09c10.44-2,15.72-8.99,15.67-20.72-.03-6.86-1.92-12.26-5.57-15.91-4.33-4.33-7.32-4.99-22.78-5h-11.87s0,21.12,0,21.12v21.13h10.64c7.44,0,11.62-.19,13.91-.63h0ZM460.94,417.53v-10.3l3.68.23c7.3.46,10.47,3.61,10.32,10.26-.08,3.6-.83,5.76-2.6,7.53-1.8,1.8-4.46,2.58-8.8,2.58h-2.59v-10.3ZM.33,178.62L.43.43h529.78l.11,178.19.11,178.19H.22l.11-178.19ZM177.05,315.32c12.09-34.82,20.04-71.54,22.9-105.76,4.36-52.25-2.57-104.66-21.44-162.16l-3.19-9.71-66.31-.11c-36.47-.06-66.31-.06-66.31,0s1.39,4.33,3.08,9.48c20.35,61.77,26.8,116.93,20.42,174.48-3.11,28.01-10.4,59.86-20.86,91.09-1.45,4.33-2.64,8.01-2.64,8.17s29.78.29,66.17.29h66.17l2-5.77ZM321.44,313.14c12.9-38.62,19.78-71.77,22.52-108.59.88-11.78.87-38.7-.01-50.66-2.64-35.71-9.52-69.16-22.04-107.16l-3.05-9.26h-132.68l1.69,4.9c.93,2.7,2.97,9.02,4.53,14.05,21.48,69.21,25.37,131.6,12.31,197.58-3.78,19.12-9.21,39.27-16.01,59.4l-2.6,7.69h132.67l2.66-7.95ZM463.13,317.28c14.44-39.38,22.78-78.96,24.87-117.96.56-10.52.3-35.98-.46-45.09-2.51-30.11-7.37-56.44-15.88-86.04-2.49-8.65-9.14-29.23-9.76-30.17-.28-.43-13.81-.52-66.15-.44l-65.79.11,3.21,9.8c12.49,38.12,19.07,70.4,21.97,107.83.61,7.81.77,36.96.24,44.66-1.75,25.85-6.19,53.93-12.08,76.46-3.61,13.8-6.53,23.61-10.88,36.58-1.44,4.31-2.62,7.88-2.62,7.95s29.68.12,65.96.12h65.96l1.4-3.81Z" inkscape:connector-curvature="0"/>
      <path id="path114" class="st0" d="M.44,417.59v-46.83h529.77v93.67H.44v-46.83ZM69.22,438.96c7.29-1.94,12.52-7.06,14.7-14.4,1.15-3.85,1.07-10.43-.17-14.43-1.9-6.14-6.42-11.06-12.2-13.26-3.06-1.17-9.75-1.62-13.17-.89-7.49,1.61-13.42,7.41-15.5,15.17-.87,3.26-.86,9.64.02,12.93,1.5,5.59,5.74,11.04,10.32,13.25,4.53,2.18,11.29,2.87,15.99,1.62h0ZM59.65,427.71c-3.23-2.18-4.51-5.56-4.24-11.21.32-6.69,3.03-10.14,7.98-10.14,3.12,0,5.38,1.44,6.81,4.34.9,1.82,1.03,2.73,1.03,6.89s-.14,5.07-1.03,6.88c-1.43,2.91-3.5,4.23-6.63,4.23-1.83,0-2.82-.25-3.92-.99h0ZM173.29,438.97c7.17-1.91,12.49-7.21,14.66-14.6.44-1.48.69-4,.69-6.75,0-7.03-1.48-11.14-5.56-15.55-4.15-4.48-8.95-6.48-15.57-6.48-6.24,0-11.2,1.9-15.09,5.78-2.51,2.5-3.91,4.83-5.16,8.57-1.32,3.94-1.31,11.25.01,15.28,2.25,6.84,7.47,11.86,14.28,13.74,2.75.76,8.93.77,11.73.02h0ZM163.88,427.98c-3.09-1.57-4.65-5.76-4.34-11.62.39-7.36,4.27-11.21,9.88-9.8,3.98,1,6.16,4.91,6.16,11.05,0,4.17-.99,7.11-3.1,9.17-1.53,1.5-1.94,1.66-4.41,1.79-1.94.1-3.14-.07-4.18-.6h0ZM249.86,438.99c5.85-1.26,9.5-3.73,11.52-7.77,1.71-3.41,1.88-7.92.42-11.02-1.86-3.96-5.16-5.86-14.21-8.2-5.94-1.53-7.59-2.28-8.4-3.78-.38-.72-.27-1.07.62-1.96.88-.88,1.51-1.09,3.39-1.08,2.91,0,4.94,1.14,5.35,3.02l.29,1.34h12.13v-1.23c0-2.25-1.27-5.54-2.86-7.4-3.07-3.59-7.77-5.32-14.41-5.31-11.1.01-17.53,5.51-17.08,14.59.14,2.74.36,3.47,1.51,5.09,1.78,2.49,6.54,4.89,13.53,6.83,6.41,1.77,7.98,2.63,7.98,4.34,0,2.06-1.73,3.28-4.92,3.46-3.83.22-5.55-.73-6.38-3.49l-.62-2.07h-13.04l.27,2.26c.94,7.93,8.05,12.88,18.59,12.94,2.04.01,4.88-.23,6.32-.54h0ZM306.22,438.96c8.02-2.13,13.34-7.88,15.13-16.36,2.34-11.03-3.14-22.04-12.8-25.73-3.15-1.2-9.86-1.63-13.23-.84-7.6,1.78-13.38,7.42-15.42,15.07-.88,3.29-.89,9.68-.02,12.93,1.99,7.47,7.36,12.92,14.67,14.88,3.04.82,8.69.85,11.66.06h0ZM296.87,427.87c-3.18-1.94-4.72-5.85-4.47-11.31.3-6.43,3.43-10.29,8.29-10.22,3.58.05,6.3,2.41,7.38,6.41.27.99.4,3.64.3,5.92-.21,4.87-1.18,7.19-3.72,8.92-2.06,1.4-5.73,1.53-7.78.28h0ZM364.18,438.92c5.59-1.32,9.13-4.17,11.03-8.88.94-2.34.98-3.04,1.12-18.01l.14-15.58h-13.07l-.14,14.05c-.12,12.38-.23,14.22-.9,15.44-1.15,2.11-2.37,2.75-5.21,2.75-2.12,0-2.72-.18-3.85-1.2-.8-.72-1.5-1.9-1.74-2.94-.22-.96-.41-7.67-.41-14.92v-13.18h-13.12l.13,15.79.13,15.79,1.22,2.61c2.1,4.5,5.26,6.95,10.66,8.25,3.37.82,10.55.82,14,0h0ZM127.85,420.75c3.08-9.88,6.05-19.4,6.59-21.14l.99-3.17-6.83.12-6.83.12-3.27,12.29c-1.8,6.76-3.38,12.05-3.53,11.76s-1.7-5.86-3.46-12.39l-3.2-11.87h-6.72c-5.69,0-6.68.1-6.48.63.13.35,2.42,7.94,5.08,16.88,2.66,8.94,5.43,18.16,6.14,20.5l1.3,4.25h14.6l5.6-17.97ZM405.64,427.17l-.02-11.33,1.52,2.61c.84,1.44,3.73,6.58,6.42,11.43l4.9,8.81h6.43s6.43.02,6.43.02v-42.26h-12.63v11s0,11,0,11l-5.98-11-5.98-11h-13.29v42.28l6.13-.12,6.13-.12-.02-11.33h0ZM475.34,437.5c5.8-1.91,9.98-6.11,11.79-11.83,1.2-3.81,1.3-11.69.2-15.47-2.14-7.31-6.07-11.35-12.74-13.09-1.93-.5-5.27-.65-14.61-.65h-12.11v42.34l12.31-.18c11.13-.16,12.58-.27,15.16-1.12h0ZM461.27,427.58c-.18-.19-.33-4.84-.33-10.35v-10.01l3.73.23c5.12.32,7.35,1.47,9.04,4.7,1.16,2.2,1.24,2.66,1.08,6.19-.15,3.36-.33,4.03-1.46,5.66-1.74,2.5-3.8,3.43-8.17,3.69-1.96.12-3.71.06-3.89-.12h0ZM.44,178.62V.44h529.77v356.38H.44v-178.19ZM175.93,318.8c.47-1.26,1.97-5.72,3.33-9.91,29.62-91.13,29.34-170.36-.92-261.95l-3.27-9.91h-66.19c-58.09,0-66.19.08-66.19.64,0,.35.49,1.96,1.1,3.56s2.55,7.54,4.32,13.19c20.89,66.65,25.59,125.63,15.02,188.46-3.53,20.98-9.39,44.14-16.98,67.12-1.9,5.76-3.46,10.62-3.46,10.78s29.79.3,66.19.3h66.19l.85-2.29ZM322.19,310.96c12.78-39.12,18.88-69.06,21.94-107.72.9-11.32.89-37.19,0-47.71-.19-2.28-.56-6.69-.82-9.8-2.45-29.57-10.1-65.11-21.07-97.92l-3.53-10.57-65.79-.11c-36.18-.06-66-.03-66.26.07-.3.12.62,3.51,2.53,9.25,12.97,39.08,19.73,72.73,22.55,112.34.39,5.42.23,39.67-.21,44.66-3.03,34.86-7.37,58.41-16.56,89.97-2.31,7.94-7.5,23.96-8.71,26.9-.3.72,3.02.76,66.16.76h66.47l3.31-10.13ZM462.69,318.58c4.31-11.41,11.63-35.2,14.57-47.38,2.18-9.01,2.4-10.03,4.17-18.86,2.71-13.59,4.52-26.66,6.17-44.75.88-9.63.74-45.33-.22-55.77-3.36-36.53-9.7-66.48-21.91-103.56l-3.7-11.24h-65.98c-36.29,0-65.98.11-65.98.24s1.16,3.71,2.58,7.95c12.49,37.29,19.52,70.83,22.51,107.48,1.01,12.32,1.01,40.74,0,53.15-2.47,30.32-7.18,55.97-15.77,85.77-1.86,6.45-7.92,25.47-9.21,28.92-.16.43,13.18.54,65.81.54h66.02l.95-2.51h0Z" inkscape:connector-curvature="0"/>
      <path id="path112" class="st0" d="M.44,417.48v-46.51h529.77v93.02H.44v-46.51ZM71.55,438.32c5.67-2.18,10.1-6.92,12.15-12.99,1.27-3.75,1.38-11.17.23-14.98-2.8-9.26-10.46-14.77-20.54-14.77-11.26,0-19.06,6.61-21,17.8-2.04,11.76,4.2,22.59,14.73,25.54,3.49.98,11.15.65,14.43-.61h0ZM59.65,427.71c-2.8-1.89-4.32-5.46-4.32-10.12,0-6.73,3.17-11.12,8.02-11.1,3.13.01,5.35,1.36,6.77,4.12,1,1.94,1.11,2.67,1.11,6.97s-.09,4.96-1.23,7.03c-1.54,2.79-3.68,4.09-6.71,4.09-1.53,0-2.59-.29-3.63-.99h0ZM173.54,438.94c3.66-.95,5.83-2.2,8.84-5.09,3.46-3.32,5.27-6.94,6.19-12.34.63-3.69.63-4.36-.03-8.08-1.64-9.25-7.51-15.67-15.92-17.42-3.58-.74-10.17-.31-13.27.87-5.7,2.18-10.29,7.11-12.12,13.03-3.97,12.85,2.31,25.86,14,29,3.1.83,9.17.85,12.29.04h0ZM163.78,427.71c-3.01-2.03-4.32-5.1-4.32-10.15,0-7.03,2.94-11.08,8.06-11.08,4.74,0,7.56,3.48,7.95,9.8.36,5.72-1.38,10.06-4.71,11.78-1.91.99-5.24.82-6.97-.35ZM250.42,438.93c8.23-1.94,12.35-6.58,12.35-13.9s-3.85-10.28-15.96-13.32c-5.92-1.49-7.41-2.33-7.41-4.17,0-2.19,3.69-3.11,6.99-1.73,1.47.61,2.67,2.47,2.14,3.33-.15.23,2.37.4,6.1.4h6.34v-1.45c0-4.42-3.7-9.31-8.51-11.22-2.3-.92-3.3-1.03-8.7-1.03s-6.4.12-8.7,1.03c-3.39,1.35-6.77,4.66-7.78,7.63-.98,2.87-.94,7.38.09,9.63,1.56,3.43,4.23,5.01,12.69,7.5,7.89,2.33,9.06,2.85,9.4,4.22.35,1.41-.73,3.16-2.34,3.79-1.45.57-5.72.24-6.96-.54-1.01-.63-1.64-1.73-2.03-3.55l-.26-1.2h-13.18l.25,2.39c.61,5.87,5.27,10.51,12.29,12.25,3.03.75,9.92.73,13.19-.05h0ZM306.48,438.92c11.16-2.91,17.5-14.36,14.85-26.83-1.4-6.63-5.52-11.88-11.46-14.64-2.99-1.39-3.88-1.59-7.74-1.77-5.14-.24-8.33.33-11.91,2.12-10.23,5.11-14.22,19.73-8.48,31.06,2.32,4.58,7.4,8.7,12.37,10.04,3.13.84,9.18.85,12.37.02h0ZM296.91,427.89c-2.78-1.71-3.98-4.08-4.4-8.64-.51-5.45.98-9.63,4.2-11.81,1.27-.86,1.93-1,4.15-.87,3.26.2,4.97,1.31,6.37,4.17.88,1.79,1.02,2.72,1.02,6.86s-.14,5.07-1.02,6.87c-1.86,3.79-6.97,5.49-10.31,3.43h0ZM364.46,438.92c4.81-1.24,7.61-3.16,9.64-6.62,2.12-3.6,2.31-5.31,2.31-21.14v-14.7s-6.53,0-6.53,0h-6.54v12.61c0,14.02-.3,16.51-2.2,18.41-1.06,1.06-1.55,1.22-3.83,1.22-2.15,0-2.84-.19-3.9-1.08-2.03-1.71-2.27-3.58-2.27-18.06v-13.09h-13.07v15.16c0,14.23.06,15.33.91,17.86,1.62,4.81,5.52,8.16,11.05,9.5,3.21.78,11.29.74,14.41-.06h0ZM128.65,418.32c3.51-11.22,6.5-20.73,6.66-21.13.25-.66-.34-.73-6.63-.73h-6.91l-2.35,8.82c-1.29,4.85-2.78,10.47-3.31,12.48l-.96,3.66-.98-3.66c-.54-2.01-1.83-6.8-2.87-10.63-1.04-3.83-2.11-7.8-2.37-8.82l-.48-1.85h-6.78c-5.24,0-6.74.12-6.58.54.11.3,1.13,3.68,2.26,7.52,3.74,12.62,9.85,33.1,10.04,33.66.14.41,2.05.54,7.53.54h7.34l6.38-20.4ZM405.95,427.6c-.08-7.49.02-10.92.31-10.51.24.33,3.08,5.33,6.32,11.11l5.88,10.51h6.43s6.43.01,6.43.01v-42.26h-12.63v11c0,9.36-.09,10.84-.58,9.91-.32-.6-2.98-5.55-5.93-11l-5.36-9.91h-13.4v42.26h12.66l-.12-11.12ZM475.87,437.33c3.92-1.5,6.03-2.95,8.11-5.58,6.52-8.25,5.45-24.4-2.04-30.99-.87-.76-2.86-1.99-4.43-2.73l-2.85-1.35-13.4-.14-13.4-.14v42.4l12.53-.16c12.24-.16,12.59-.19,15.48-1.29h0ZM461.04,417.48l.12-9.91,1.52-.15c.84-.08,2.82.08,4.4.35,5.15.91,7.77,4.15,7.79,9.64.02,4.68-1.38,7.59-4.37,9.12-1.31.67-2.56.86-5.64.86h-3.95l.12-9.91ZM.44,178.62V.44h529.77v356.38H.44v-178.19ZM178.9,309.98c12.57-38.15,19.33-71.98,21.83-109.14.43-6.45.44-36.6,0-43.13-1.72-26.05-5.89-51.92-12.53-77.77-2.85-11.09-9.91-34.33-12.48-41.06l-.71-1.85h-66.09c-36.35,0-66.19.1-66.31.22-.12.12.45,2.13,1.26,4.47,1.93,5.52,7.04,21.92,8.99,28.86,7.28,25.88,12.24,53.06,14.46,79.29.95,11.24,1.3,36.78.67,48.36-2.08,37.92-9.44,74.79-22.92,114.91l-2.67,7.95,66.45-.11,66.45-.11,3.59-10.89h0ZM320.12,317.28c9.86-28.46,17.56-59.57,20.99-84.85,2.16-15.92,2.91-24.33,3.57-40.24.72-17.16-.13-38.01-2.27-56.04-3.51-29.62-10.23-58.82-20.97-91.16l-2.64-7.95h-66.44c-52.97,0-66.39.11-66.23.54.11.3,1.7,5.09,3.53,10.65,27.64,84.16,29.68,158.63,6.59,240.54-1.94,6.89-9.1,29.46-10.07,31.78-.18.43,13.22.54,66.19.54h66.42l1.32-3.81ZM463.83,315.64c12.73-34.98,20.99-72.26,23.64-106.74.8-10.43.94-14.51.93-27.99,0-15.58-.46-24.98-1.8-37.58-3.55-33.31-11.76-69.32-23.13-101.35l-1.76-4.96h-65.96c-36.28,0-65.96.13-65.96.28s1.47,4.76,3.27,10.24c7.23,22.01,13.16,44.98,16.57,64.2,7.08,39.89,7.99,77.44,2.86,116.76-3.36,25.7-10.11,54.38-19.34,82.11-1.72,5.16-3.19,9.63-3.27,9.93-.12.44,13.15.52,65.95.44l66.1-.11,1.9-5.23Z" inkscape:connector-curvature="0"/>
    </g>
  </g>
</svg>