<?xml version="1.0" encoding="UTF-8" standalone="no"?>
<!-- Created with Inkscape (http://www.inkscape.org/) -->

<svg
   xmlns:dc="http://purl.org/dc/elements/1.1/"
   xmlns:cc="http://creativecommons.org/ns#"
   xmlns:rdf="http://www.w3.org/1999/02/22-rdf-syntax-ns#"
   xmlns:svg="http://www.w3.org/2000/svg"
   xmlns="http://www.w3.org/2000/svg"
   xmlns:sodipodi="http://sodipodi.sourceforge.net/DTD/sodipodi-0.dtd"
   xmlns:inkscape="http://www.inkscape.org/namespaces/inkscape"
   width="187.20134mm"
   height="163.83806mm"
   viewBox="0 0 187.20134 163.83806"
   version="1.1"
   id="svg8"
   inkscape:version="0.92.2 5c3e80d, 2017-08-06"
   sodipodi:docname="OVO Sound.svg">
  <defs
     id="defs2" />
  <sodipodi:namedview
     id="base"
     pagecolor="#ffffff"
     bordercolor="#666666"
     borderopacity="1.0"
     inkscape:pageopacity="0.0"
     inkscape:pageshadow="2"
     inkscape:zoom="0.35"
     inkscape:cx="358.22233"
     inkscape:cy="236.75807"
     inkscape:document-units="mm"
     inkscape:current-layer="layer1"
     showgrid="false"
     fit-margin-top="0"
     fit-margin-left="0"
     fit-margin-right="0"
     fit-margin-bottom="0"
     inkscape:window-width="1280"
     inkscape:window-height="691"
     inkscape:window-x="0"
     inkscape:window-y="1"
     inkscape:window-maximized="1" />
  <metadata
     id="metadata5">
    <rdf:RDF>
      <cc:Work
         rdf:about="">
        <dc:format>image/svg+xml</dc:format>
        <dc:type
           rdf:resource="http://purl.org/dc/dcmitype/StillImage" />
        <dc:title></dc:title>
      </cc:Work>
    </rdf:RDF>
  </metadata>
  <g
     inkscape:label="Layer 1"
     inkscape:groupmode="layer"
     id="layer1"
     transform="translate(-11.053676,-47.637521)">
    <g
       id="g110"
       transform="translate(-0.75595046,-10.583333)">
      <path
         style="fill:#dee0e2;stroke-width:0.15369424"
         d="m 11.809998,205.53678 v -16.52213 h 93.599792 93.59979 v 16.52213 16.52213 H 105.40979 11.809998 Z m 24.952938,7.28213 c 3.026475,-1.01955 4.854105,-3.76241 4.861472,-7.29597 0.0027,-1.31456 -0.465297,-3.24293 -1.014596,-4.18023 -1.351561,-2.30627 -3.492468,-3.45519 -6.437303,-3.45459 -1.789966,3.1e-4 -3.016465,0.34599 -4.336062,1.22189 -1.040534,0.69066 -1.619836,1.38891 -2.271682,2.73811 -1.283977,2.65759 -1.033654,6.07126 0.621424,8.47436 1.09228,1.58594 2.820695,2.53542 5.204616,2.85908 0.783405,0.10636 2.540979,-0.0827 3.372131,-0.36265 z m -3.732206,-3.47844 c -1.561365,-0.79615 -2.240034,-3.33216 -1.543462,-5.76749 0.338155,-1.18225 1.518194,-2.1091 2.685241,-2.1091 1.759969,0 2.997037,1.68115 2.997037,4.0729 0,2.96778 -2.061915,4.86273 -4.138816,3.80369 z m 39.872726,3.63184 c 1.788512,-0.41289 3.406651,-1.58797 4.310488,-3.13026 1.677376,-2.86222 1.438111,-6.95017 -0.554007,-9.46542 -2.137045,-2.69824 -6.898308,-3.35231 -9.96665,-1.36914 -3.140241,2.02963 -4.183109,6.75742 -2.309348,10.46932 1.457766,2.88782 4.948239,4.31993 8.519517,3.4955 z M 69.826714,209.404 c -0.613449,-0.27855 -1.374375,-1.16182 -1.632042,-1.89443 -0.114967,-0.32689 -0.207343,-1.20581 -0.207343,-1.97279 0,-1.58098 0.214892,-2.33476 0.882314,-3.09492 0.607235,-0.6916 1.180074,-0.97798 1.956245,-0.97798 1.699057,0 2.790082,1.23245 3.009496,3.39959 0.189351,1.87021 -0.374905,3.49858 -1.501908,4.33432 -0.523407,0.38813 -1.863389,0.49837 -2.506762,0.20621 z m 30.203526,3.56869 c 2.85299,-0.58431 4.34497,-2.20888 4.35889,-4.74626 0.007,-1.35157 -0.31412,-2.11482 -1.22947,-2.9185 -0.77345,-0.6791 -1.47643,-0.97087 -3.882778,-1.61152 -1.116963,-0.29738 -2.182419,-0.619 -2.367679,-0.71473 -1.404743,-0.72585 -1.057706,-1.78749 0.63249,-1.93489 0.942456,-0.0822 1.738761,0.33071 1.944226,1.00812 l 0.147053,0.48483 h 2.096978 2.09699 l -0.12046,-0.76199 c -0.40088,-2.53597 -2.40194,-3.87346 -5.827711,-3.8952 -2.45507,-0.0156 -4.122883,0.63437 -5.249937,2.04587 -0.648706,0.81244 -0.989105,2.36815 -0.763722,3.49041 0.344429,1.71504 1.476916,2.5225 4.92561,3.51195 2.907134,0.83408 3.44135,1.20654 3.082859,2.14942 -0.440619,1.15892 -2.838848,1.29151 -3.751074,0.2074 -0.229235,-0.27244 -0.395455,-0.66055 -0.395455,-0.92338 v -0.4534 l -2.26699,0.0425 -2.26699,0.0425 0.04679,0.53793 c 0.146598,1.68535 1.117531,3.06508 2.707896,3.84801 1.610034,0.79262 3.975438,1.02239 6.082484,0.59086 z m 20.35065,-0.15395 c 3.04561,-1.01747 4.85545,-3.71235 4.85545,-7.22984 0,-1.47122 -0.21934,-2.54381 -0.76499,-3.74078 -1.28937,-2.82843 -4.40158,-4.39649 -7.79103,-3.92545 -3.88763,0.54027 -6.26421,3.42898 -6.26421,7.61411 0,4.3232 2.36777,7.0723 6.58436,7.64478 0.78245,0.10622 2.54155,-0.0826 3.38042,-0.36282 z m -3.67458,-3.46444 c -1.28418,-0.67701 -1.82369,-1.80494 -1.82598,-3.81752 -0.002,-1.4858 0.32067,-2.51697 1.0266,-3.28389 0.78499,-0.85282 2.19902,-1.03379 3.25272,-0.41628 1.3739,0.80516 2.01543,3.25879 1.40292,5.36574 -0.56065,1.92859 -2.36743,2.93684 -3.85626,2.15195 z m 23.81882,3.55174 c 1.1763,-0.29954 2.06614,-0.82474 2.74904,-1.62255 1.0426,-1.21805 1.07598,-1.43391 1.16809,-7.55276 l 0.0827,-5.49471 -2.26699,1.4e-4 -2.26699,1.4e-4 -0.003,4.80295 c -0.003,4.38574 -0.0287,4.8588 -0.29531,5.44596 -0.34635,0.76284 -0.95289,1.1247 -1.88383,1.1239 -0.85704,0 -1.6065,-0.46245 -1.93806,-1.19393 -0.22606,-0.49874 -0.25971,-1.19535 -0.25971,-5.37574 v -4.80274 l -2.28058,-1.6e-4 -2.28058,-1.5e-4 0.0589,5.34087 c 0.0554,5.03197 0.078,5.38851 0.38934,6.16429 0.62956,1.56856 1.3305,2.29301 2.78839,2.88188 1.56381,0.63165 4.36933,0.75877 6.239,0.28269 z m -83.361985,-7.36926 2.252879,-7.22363 -2.235691,-0.0427 c -1.477406,-0.0282 -2.270444,0.0135 -2.338148,0.12309 -0.05635,0.0912 -0.538999,1.83312 -1.072555,3.871 -1.211433,4.62698 -1.331419,5.02286 -1.4343,4.73232 -0.0449,-0.1268 -0.588038,-2.14899 -1.206975,-4.49376 l -1.12534,-4.26322 -2.283434,-0.002 c -1.762857,-10e-4 -2.267194,0.042 -2.212202,0.19032 0.03918,0.10567 1.02491,3.39251 2.190517,7.30409 l 2.11929,7.11197 2.546539,-0.042 2.546539,-0.042 2.252881,-7.22363 z m 97.702735,3.30432 c -0.0402,-3.70096 0.0204,-4.43524 0.30737,-3.72152 0.0607,0.15094 1.04401,1.94761 2.18519,3.99262 l 2.07487,3.71819 2.19014,0.003 2.19015,0.003 v -7.30048 -7.30047 h -2.07228 -2.07228 l -0.041,3.95762 -0.041,3.95774 -2.14818,-3.95763 -2.14819,-3.95763 h -2.34737 -2.34737 v 7.30048 7.30048 h 2.1567 2.1567 z m 24.2285,3.69178 c 2.21712,-0.56704 3.7293,-1.95765 4.41993,-4.06457 0.29251,-0.89236 0.35638,-1.41773 0.35638,-2.93153 0,-1.10597 -0.0857,-2.15198 -0.21405,-2.6128 -0.559,-2.00683 -1.86904,-3.59046 -3.52047,-4.25567 -0.83562,-0.33659 -1.09203,-0.3552 -5.5226,-0.40078 l -4.6463,-0.0478 -0.0414,7.30881 -0.0414,7.3088 4.00988,-3e-5 c 3.49349,-4e-5 4.16316,-0.0392 5.19998,-0.30442 z m -4.67588,-6.9817 v -3.62621 l 1.26798,0.003 c 1.51949,0.004 2.29809,0.30338 2.99814,1.15264 1.27554,1.54745 0.94122,4.54233 -0.62271,5.57825 -0.54939,0.36392 -0.80071,0.41874 -2.13309,0.46534 l -1.51032,0.0528 v -3.62621 z M 11.809998,121.23549 V 58.220854 h 93.599792 93.59979 v 63.014636 63.01464 H 105.40979 11.809998 Z m 62.931297,46.56907 c 4.099143,-12.47583 6.407402,-23.37597 7.550831,-35.65678 0.297256,-3.19262 0.427278,-14.96755 0.203657,-18.44331 C 81.696189,101.27632 79.275646,89.115705 74.947087,75.780421 L 73.537741,71.438559 H 50.21625 26.894761 l 0.992703,2.958614 c 10.09692,30.092457 10.832129,57.040397 2.36057,86.523047 -0.745517,2.59455 -2.984897,9.59305 -3.309472,10.34275 -0.04424,0.10218 7.761424,0.14048 23.287634,0.11429 l 23.354174,-0.0394 z m 50.310045,1.11556 c 9.453,-28.05979 10.79157,-53.31858 4.25194,-80.234154 -1.27507,-5.247882 -2.75903,-10.311535 -4.64919,-15.864159 l -0.44471,-1.306401 -23.30912,-0.03892 c -12.820023,-0.0214 -23.30913,-0.01669 -23.30913,0.01048 0,0.02716 0.341154,1.047534 0.758117,2.267483 4.814264,14.085511 7.704618,28.660511 8.272961,41.717511 0.198447,4.55909 0.09311,13.10888 -0.191622,15.55316 -0.03746,0.3216 -0.142797,1.44926 -0.234073,2.50591 -0.90062,10.42587 -3.426298,22.15509 -7.330617,34.04327 -0.638524,1.94424 -1.187326,3.60413 -1.219559,3.68867 -0.03895,0.10214 7.764007,0.14114 23.265283,0.11626 l 23.32389,-0.0374 z m 50.65329,-0.46207 c 9.4369,-26.71669 10.82416,-52.04443 4.32484,-78.960418 -1.2133,-5.024738 -2.18554,-8.395142 -4.11212,-14.255141 l -1.25059,-3.803932 h -23.21773 -23.21772 l 1.25821,3.803932 c 4.06593,12.292418 6.42515,23.469424 7.53456,35.695489 0.34348,3.7853 0.39271,16.56845 0.0778,20.21079 -0.90243,10.43891 -2.57783,19.50499 -5.46747,29.58614 -0.77524,2.7046 -2.8414,9.25669 -3.28361,10.41279 -0.0586,0.15317 4.63072,0.19211 23.1312,0.19211 h 23.20469 z"
         id="path124"
         inkscape:connector-curvature="0" />
      <path
         style="fill:#d0d1d2;stroke-width:0.15369424"
         d="m 11.809998,205.53678 v -16.52213 h 93.599792 93.59979 v 16.52213 16.52213 H 105.40979 11.809998 Z m 24.744771,7.35665 c 2.176243,-0.60254 3.828213,-2.19255 4.622255,-4.44886 0.455763,-1.29509 0.567695,-3.67221 0.23462,-4.98266 -0.557126,-2.19195 -1.896956,-3.96854 -3.630001,-4.81334 -0.932864,-0.45473 -2.651247,-0.86801 -3.609134,-0.86801 -0.959174,0 -2.677042,0.41357 -3.609134,0.86888 -2.861673,1.39789 -4.40283,5.15274 -3.623678,8.82867 0.922664,4.353 5.052024,6.6787 9.615072,5.41532 z m -3.45812,-3.5728 c -1.209646,-0.55549 -1.813165,-1.75137 -1.832003,-3.63015 -0.015,-1.49592 0.249126,-2.47066 0.87532,-3.23034 1.407202,-1.70718 3.963904,-1.11219 4.743302,1.10386 0.268126,0.76236 0.268126,3.18321 0,3.94557 -0.605551,1.72174 -2.25898,2.51255 -3.786619,1.81106 z m 40.530871,3.44465 c 2.342213,-0.80419 3.963246,-2.70425 4.510723,-5.28717 0.609601,-2.87602 -0.119377,-5.73343 -1.928946,-7.56101 -2.373836,-2.39746 -6.595407,-2.79574 -9.548362,-0.90084 -1.915492,1.22917 -2.998559,3.253 -3.160496,5.90574 -0.26674,4.36953 2.041544,7.51427 6.034193,8.22079 1.102639,0.19511 2.910872,0.0283 4.092888,-0.37751 z m -3.797949,-3.39681 c -1.324723,-0.68757 -1.842829,-1.7643 -1.843728,-3.83169 -7.69e-4,-1.6941 0.310471,-2.60262 1.151914,-3.36282 0.874091,-0.78969 2.242308,-0.93532 3.156945,-0.33603 0.899832,0.5896 1.607766,2.21828 1.607766,3.69885 0,0.93138 -0.421595,2.37833 -0.860715,2.95404 -0.76325,1.00067 -2.212333,1.3966 -3.212182,0.87765 z m 30.628269,3.52744 c 2.37501,-0.61713 3.70931,-2.04374 3.96769,-4.24216 0.15327,-1.30408 -0.22225,-2.37166 -1.13431,-3.22478 -0.84276,-0.7883 -1.67911,-1.14097 -4.464759,-1.88266 -1.042606,-0.2776 -2.080042,-0.64187 -2.305413,-0.80949 -0.459592,-0.34182 -0.603009,-0.87065 -0.326482,-1.20384 0.278701,-0.33582 1.279944,-0.58256 1.895394,-0.4671 0.66288,0.12435 1.479445,0.77572 1.479445,1.18014 0,0.27518 0.135825,0.29372 2.151715,0.29372 1.18345,0 2.15172,-0.0546 2.15172,-0.1214 0,-0.49109 -0.54157,-2.01633 -0.88616,-2.49571 -1.91057,-2.65796 -7.789256,-2.84385 -10.07081,-0.31844 -0.985749,1.09111 -1.374787,2.57908 -1.039611,3.97625 0.381712,1.59116 1.500867,2.37121 4.772956,3.32675 2.479678,0.72414 2.716616,0.82312 3.081786,1.28735 0.775769,0.98622 -0.573432,2.04066 -2.283225,1.78439 -0.92218,-0.13823 -1.720726,-0.87306 -1.720726,-1.58344 v -0.47645 h -2.295751 -2.295751 l 0.08107,0.57636 c 0.390238,2.77427 1.996247,4.12871 5.586289,4.71122 0.621045,0.10077 2.776583,-0.0825 3.654933,-0.31071 z m 19.88372,-0.0541 c 3.0605,-0.95253 4.89024,-3.6858 4.89024,-7.30504 0,-2.40287 -0.67172,-4.15898 -2.1602,-5.64745 -3.09726,-3.09726 -8.85096,-2.65893 -11.27376,0.85886 -1.68179,2.44188 -1.89626,5.90664 -0.53694,8.67392 1.52347,3.10143 5.40575,4.56347 9.08066,3.41971 z m -3.63525,-3.52119 c -0.76198,-0.3499 -1.04913,-0.66728 -1.47518,-1.63044 -0.50248,-1.13594 -0.47729,-3.25866 0.0524,-4.41567 0.86137,-1.88148 2.83762,-2.39129 4.26631,-1.10056 0.84174,0.76047 1.15275,1.66876 1.15147,3.36282 -0.001,1.5887 -0.21645,2.33535 -0.89657,3.10996 -0.84745,0.9652 -1.94446,1.20379 -3.09844,0.67389 z m 23.74576,3.63811 c 1.62908,-0.39384 2.94331,-1.4378 3.55724,-2.82569 0.47226,-1.06762 0.60877,-2.9163 0.56069,-7.59331 l -0.045,-4.38028 -2.26699,-0.0327 -2.26699,-0.0327 -0.003,4.8741 c -0.003,4.45567 -0.0284,4.92932 -0.29531,5.51713 -0.47256,1.04083 -1.63639,1.41177 -2.84503,0.90676 -1.06462,-0.44482 -1.07411,-0.49522 -1.15973,-6.15346 l -0.0768,-5.07905 -2.26699,-0.0327 -2.26699,-0.0327 v 4.8843 c 0,5.1872 0.0981,6.22866 0.69848,7.41339 0.83557,1.64891 2.2455,2.45744 4.91136,2.81642 0.68897,0.0928 2.97712,-0.0587 3.76551,-0.24935 z M 57.149797,205.6817 c 1.225711,-3.93255 2.250166,-7.24716 2.276568,-7.36581 0.03954,-0.17769 -0.357176,-0.21572 -2.250237,-0.21572 h -2.298241 l -0.467263,1.72027 c -0.256995,0.94616 -0.792936,2.94791 -1.190981,4.44835 -0.645299,2.43247 -0.979785,3.26144 -0.992236,2.45911 -0.0023,-0.14793 -0.511344,-2.13635 -1.131219,-4.41871 l -1.127046,-4.14974 -2.250054,-0.032 c -1.237529,-0.0176 -2.250053,0.01 -2.250053,0.0603 0,0.10813 0.09372,0.42757 2.404167,8.19437 0.968132,3.25447 1.796183,6.03826 1.840113,6.18619 0.07197,0.24236 0.33347,0.26869 2.643894,0.26623 l 2.564021,-0.003 z m 97.785403,3.16581 0.041,-3.98974 2.22856,3.98745 2.22857,3.98745 2.22857,0.002 2.22856,0.002 -0.0353,-7.3389 -0.0353,-7.3389 -2.03955,-0.0307 -2.03955,-0.0307 -0.0769,4.01902 -0.0769,4.01902 -2.16779,-3.98834 -2.1678,-3.98833 h -2.28933 -2.28934 l -0.0399,7.3389 -0.0399,7.3389 h 2.15066 2.15066 l 0.041,-3.98974 z m 23.8176,3.81989 c 2.12056,-0.44221 3.92071,-1.86892 4.57939,-3.62943 1.24115,-3.31725 0.59113,-7.3581 -1.49261,-9.27883 -1.54109,-1.42053 -3.07673,-1.71818 -8.4889,-1.64537 l -3.39566,0.0457 -0.0352,7.3389 -0.0353,7.3389 h 4.02691 c 2.34608,0 4.36685,-0.0709 4.84137,-0.16985 z m -4.3343,-7.11275 v -3.62969 l 1.11428,9.2e-4 c 1.92622,0.002 2.85604,0.46062 3.53904,1.74753 0.26426,0.49792 0.33699,0.89759 0.33908,1.86343 0.003,1.53544 -0.41325,2.50281 -1.34258,3.11782 -0.53905,0.35674 -0.80663,0.41554 -2.13309,0.46882 l -1.51673,0.0609 v -3.62969 z M 11.809998,121.23549 V 58.220854 h 93.599792 93.59979 v 63.014636 63.01464 H 105.40979 11.809998 Z m 62.36953,48.25999 c 4.788632,-13.91178 7.491741,-27.08591 8.325365,-40.57528 0.201069,-3.25361 0.201951,-11.63302 0.0016,-14.90834 C 81.715318,101.08027 78.986119,87.602594 74.406767,74.012937 L 73.53927,71.438559 H 50.216896 26.894523 l 0.916036,2.728073 c 10.154716,30.242058 10.902617,57.435998 2.389295,86.875668 -0.825779,2.8556 -2.834292,9.1435 -3.252623,10.18274 -0.103135,0.25621 1.039019,0.26754 23.231264,0.23054 l 23.339738,-0.0389 z m 50.630282,0.1537 c 6.094,-17.82171 8.81407,-33.91011 8.52309,-50.41171 -0.25869,-14.67128 -2.56734,-27.573161 -7.8999,-44.148673 l -1.17433,-3.650238 H 100.9249 c -12.833575,0 -23.33377,0.01945 -23.33377,0.04323 0,0.02377 0.417277,1.285987 0.927282,2.80492 7.579497,22.573775 9.88745,43.737331 7.055792,64.700471 -1.298512,9.61304 -3.834187,20.19857 -7.208062,30.09106 -0.426257,1.24982 -0.775012,2.30477 -0.775012,2.34433 0,0.0396 10.488217,0.0544 23.30715,0.033 l 23.30715,-0.0389 z m 50.07518,1.14007 c 0.16604,-0.38733 0.88503,-2.44492 1.59779,-4.5724 5.81619,-17.36071 8.1843,-33.38267 7.43218,-50.28381 -0.56789,-12.761 -3.3117,-26.700966 -8.06966,-40.997937 l -1.16363,-3.496544 h -23.23346 -23.23347 l 0.8243,2.420684 c 4.61947,13.565681 7.37652,27.146847 8.18242,40.306317 0.20212,3.30049 0.19992,11.52676 -0.004,14.75464 -0.81656,12.92837 -3.28956,25.27483 -7.8194,39.03834 -0.59815,1.81743 -1.08763,3.3563 -1.08772,3.4197 -9e-5,0.0634 10.41124,0.11527 23.13628,0.11527 h 23.13645 z"
         id="path122"
         inkscape:connector-curvature="0" />
      <path
         style="fill:#8e9091;stroke-width:0.15369424"
         d="m 11.809998,205.53678 v -16.52213 h 93.599792 93.59979 v 16.52213 16.52213 H 105.40979 11.809998 Z m 25.128807,7.24024 c 2.996955,-1.08783 4.681311,-3.68229 4.68605,-7.21805 0.0033,-2.42949 -0.752026,-4.3774 -2.244651,-5.78907 -2.719801,-2.57227 -7.515307,-2.62538 -10.279605,-0.11383 -2.909017,2.64303 -3.192115,7.97104 -0.592124,11.144 0.943853,1.15185 2.53068,2.03986 4.203939,2.3526 1.119514,0.20924 3.099982,0.0332 4.226391,-0.37565 z m -3.760736,-3.41072 c -0.293346,-0.12722 -0.663809,-0.3493 -0.82325,-0.49348 -1.151297,-1.04112 -1.447988,-4.14035 -0.562513,-5.87603 0.55614,-1.09012 1.65099,-1.64259 2.88768,-1.45713 1.850392,0.27748 2.933176,2.87283 2.273243,5.44879 -0.308359,1.20366 -0.845957,1.94525 -1.687018,2.3272 -0.761464,0.34579 -1.373478,0.36064 -2.088142,0.0506 z m 40.338553,3.47151 c 2.207062,-0.75934 3.693388,-2.28931 4.479837,-4.61138 0.426672,-1.25979 0.386198,-4.34221 -0.0735,-5.59743 -1.260866,-3.44288 -4.525654,-5.30782 -8.273096,-4.72584 -3.837843,0.59602 -6.18871,3.49452 -6.196332,7.63975 -0.0073,3.99442 2.276181,6.89325 5.991804,7.6063 1.022002,0.19613 3.04611,0.0413 4.071287,-0.3114 z m -3.704893,-3.52216 c -1.216087,-0.55226 -1.813379,-1.79694 -1.813379,-3.77887 0,-0.67625 0.09206,-1.5062 0.204584,-1.84433 0.607257,-1.8248 2.33153,-2.6987 3.822903,-1.93753 1.234797,0.63021 1.775405,1.78178 1.775405,3.78186 0,2.03568 -0.563266,3.20677 -1.819952,3.78385 -0.780576,0.35843 -1.372275,0.35707 -2.169561,-0.005 z m 30.695401,3.57981 c 1.26768,-0.3761 2.17355,-0.89123 2.81405,-1.60019 0.85645,-0.94798 1.07159,-1.55861 1.08124,-3.06884 0.007,-1.14947 -0.0413,-1.39078 -0.40459,-2.00881 -0.69725,-1.18602 -1.91348,-1.85526 -4.582119,-2.52137 -2.92633,-0.73042 -3.568595,-1.09956 -3.290496,-1.89121 0.183821,-0.52327 1.100973,-0.86161 1.947777,-0.71854 0.71395,0.12062 1.496413,0.74701 1.496413,1.19794 0,0.32467 0.0487,0.33215 2.163405,0.33215 h 2.16341 l -0.0972,-0.69162 c -0.32103,-2.28433 -1.94288,-3.65297 -4.778387,-4.03236 -2.401513,-0.32132 -4.677661,0.25874 -5.98056,1.5241 -1.486679,1.44385 -1.735776,4.12059 -0.513056,5.51319 0.727786,0.8289 1.52052,1.20939 4.242013,2.03603 1.376142,0.41801 2.638356,0.88333 2.80492,1.03408 0.394561,0.35706 0.398001,1.16852 0.0065,1.52286 -0.715867,0.64785 -2.601849,0.60348 -3.327561,-0.0783 -0.213019,-0.20013 -0.418742,-0.61038 -0.471494,-0.94029 l -0.09359,-0.58525 H 93.392619 91.09743 l 0.104403,0.73005 c 0.338194,2.36485 2.116667,3.98961 4.921944,4.49652 1.023933,0.18504 3.367418,0.0513 4.383393,-0.25015 z m 18.73514,0.24124 c 2.80737,-0.44768 5.02675,-2.49062 5.75874,-5.3009 0.30193,-1.15921 0.30193,-3.43883 0,-4.59805 -0.76046,-2.91958 -2.99326,-4.89803 -6.02669,-5.34016 -4.82068,-0.70262 -8.64098,2.67478 -8.64098,7.63919 0,5.09178 3.88019,8.40185 8.90893,7.59992 z m -2.62706,-3.88476 c -1.33677,-0.70601 -1.97131,-2.59788 -1.63268,-4.86787 0.38841,-2.60374 2.826,-3.78328 4.56732,-2.21011 0.84174,0.76047 1.15275,1.66876 1.15147,3.36282 -0.002,2.06705 -0.49743,3.1181 -1.77965,3.77224 -0.77813,0.39698 -1.47958,0.37961 -2.30646,-0.0571 z m 23.73894,3.74373 c 1.57164,-0.35221 2.87805,-1.28548 3.49657,-2.49788 0.63348,-1.24173 0.7456,-2.37057 0.74843,-7.53539 l 0.003,-4.87979 h -2.29763 -2.29763 l -0.0462,5.03349 c -0.0515,5.61414 -0.0767,5.75666 -1.1001,6.24232 -1.09027,0.51736 -2.37822,0.15103 -2.8907,-0.8222 -0.25664,-0.48738 -0.282,-0.9814 -0.282,-5.49457 v -4.95904 h -2.31584 -2.31583 l 0.0552,5.49457 c 0.048,4.77957 0.0902,5.58457 0.32411,6.18619 0.75145,1.93275 2.18992,2.99935 4.55974,3.38094 1.00493,0.16182 3.32724,0.0826 4.35921,-0.14864 z m -83.174832,-7.40241 c 1.249531,-4.00406 2.272778,-7.33198 2.273884,-7.39538 0.0011,-0.0634 -1.030768,-0.11527 -2.293048,-0.11527 -2.051921,0 -2.303784,0.0285 -2.377442,0.26897 -0.09322,0.30435 -1.40998,5.25725 -1.941363,7.30232 -0.192452,0.74067 -0.38854,1.30805 -0.43575,1.26084 -0.04721,-0.0472 -0.607855,-2.03646 -1.245878,-4.42056 l -1.160043,-4.33472 -2.265321,-0.0425 c -1.452793,-0.0273 -2.265322,0.0132 -2.265322,0.11291 0,0.19748 4.098853,13.96376 4.280656,14.37688 0.12788,0.29059 0.27256,0.30628 2.646514,0.28702 l 2.511239,-0.0204 z m 97.720012,3.3376 c 0,-2.19078 0.0519,-3.93153 0.11527,-3.86832 0.0634,0.0632 1.08528,1.84099 2.27084,3.95064 l 2.15557,3.8357 2.22472,0.0141 2.22471,0.0141 v -7.35882 -7.35882 l -2.11329,-0.0428 -2.1133,-0.0428 v 3.94915 c 0,2.17204 -0.0519,3.90043 -0.11527,3.84088 -0.0634,-0.0596 -1.05049,-1.81743 -2.19354,-3.90639 l -2.07828,-3.79818 -2.34043,-0.0424 -2.34044,-0.0424 v 7.41975 7.41975 h 2.15172 2.15172 z m 24.17786,3.66345 c 3.20002,-0.82921 4.86159,-3.21782 4.86808,-6.99813 0.004,-2.51242 -0.52298,-4.14715 -1.77333,-5.49766 -1.60072,-1.72899 -3.02987,-2.05269 -8.75245,-1.98245 l -3.53497,0.0434 -0.04,7.22363 c -0.022,3.97299 -0.0135,7.29279 0.0187,7.37732 0.1019,0.2664 8.10139,0.1222 9.21396,-0.1661 z m -4.65869,-7.05753 v -3.61181 l 1.03743,9.2e-4 c 2.47032,0.002 3.69246,0.9526 3.95308,3.07463 0.21122,1.71979 -0.4178,3.13151 -1.67783,3.76558 -0.62771,0.31587 -0.98272,0.38256 -2.03645,0.38256 h -1.27623 v -3.61181 z M 11.912586,184.14779 c -0.05642,-0.0564 -0.102588,-28.41306 -0.102588,-63.01476 V 58.220854 h 93.599972 93.59997 l -0.0386,62.976216 -0.0386,62.97621 -93.45878,0.0385 c -51.402326,0.0212 -93.50494,-0.008 -93.561364,-0.064 z m 62.574125,-15.4592 c 6.100121,-18.35232 8.645301,-34.31101 8.160684,-51.16884 C 82.249144,103.66617 79.650853,89.812242 74.574204,74.47402 L 73.569527,71.438559 H 50.235822 26.902117 l 0.210169,0.6532 c 0.115592,0.359261 0.696854,2.157522 1.291694,3.996137 5.818522,17.984741 8.321164,35.039104 7.527335,51.295364 -0.654029,13.39334 -3.290311,26.82559 -8.054011,41.03636 -0.552563,1.64837 -1.004796,3.01433 -1.004966,3.03546 -1.53e-4,0.0211 10.503223,0.0384 23.340871,0.0384 h 23.341176 z m 50.932179,-0.8069 c 4.38457,-13.11762 6.92149,-25.78516 7.80281,-38.96149 0.13712,-2.0501 0.0874,-14.64561 -0.0631,-15.9842 -0.0428,-0.38039 -0.18663,-1.93654 -0.31969,-3.45812 -0.93921,-10.739808 -3.26444,-21.621254 -7.25001,-33.928 l -1.33146,-4.111321 h -23.3496 c -18.616305,0 -23.33474,0.03894 -23.276302,0.192118 0.04031,0.105664 0.503075,1.506203 1.028362,3.112308 4.593515,14.044996 6.98202,25.950765 7.847189,39.115185 0.20667,3.14469 0.203973,11.90151 -0.0047,15.33128 -0.776683,12.76429 -3.510679,26.171 -8.077371,39.60905 -0.45863,1.34956 -0.83387,2.50826 -0.83387,2.57487 0,0.0666 10.495395,0.10361 23.323102,0.0822 l 23.3231,-0.0389 z m 50.27813,0.69145 c 7.66496,-21.8857 9.97173,-41.77162 7.31863,-63.09131 -1.1745,-9.438013 -3.52157,-19.524032 -6.99921,-30.077613 l -1.30678,-3.965658 H 151.4573 128.20494 l 0.5236,1.498519 c 0.85433,2.445063 2.58101,8.089378 3.41583,11.165977 2.93006,10.798303 4.53444,20.534885 5.09295,30.907825 0.16807,3.12166 0.11722,13.38974 -0.0723,14.60095 -0.0397,0.25359 -0.11445,1.11812 -0.16615,1.92118 -0.28112,4.36707 -1.32229,11.78843 -2.37186,16.90636 -1.3828,6.74285 -3.05603,12.92086 -5.38015,19.86498 l -1.06738,3.18916 h 23.24739 23.24738 z"
         id="path120"
         inkscape:connector-curvature="0" />
      <path
         style="fill:#6a6b6d;stroke-width:0.15369424"
         d="m 11.912586,221.95657 c -0.05642,-0.0564 -0.102588,-7.49143 -0.102588,-16.52225 v -16.41967 h 93.600482 93.60048 l -0.0391,16.48371 -0.0391,16.4837 -93.45878,0.0386 c -51.402326,0.0212 -93.50494,-0.008 -93.561364,-0.064 z m 24.166796,-8.89489 c 3.462996,-0.81628 5.552707,-3.65025 5.569257,-7.55277 0.01016,-2.39417 -0.779354,-4.35465 -2.332886,-5.79295 -2.849639,-2.63826 -7.541159,-2.60343 -10.375346,0.077 -2.966886,2.80595 -3.00375,8.44466 -0.07436,11.37418 1.825526,1.8256 4.512171,2.53122 7.213334,1.89451 z m -2.712784,-3.62369 c -0.700173,-0.20222 -1.493224,-1.05241 -1.787624,-1.91642 -0.327229,-0.96036 -0.328511,-3.00545 -0.0025,-3.96229 0.640347,-1.87931 2.54249,-2.62038 4.075023,-1.5876 1.097775,0.73979 1.694562,2.74305 1.362579,4.57383 -0.299665,1.65255 -0.845071,2.44825 -1.947665,2.8415 -0.676767,0.24136 -1.006364,0.25124 -1.699828,0.051 z m 39.445706,3.62369 c 3.457487,-0.81498 5.547297,-3.66047 5.547297,-7.55322 0,-3.81013 -2.036584,-6.60556 -5.462531,-7.4979 -4.099699,-1.06784 -8.172942,1.24384 -9.210475,5.22719 -0.299611,1.15029 -0.302647,3.43611 -0.0061,4.57474 1.040207,3.99362 4.942393,6.23671 9.131782,5.24919 z m -2.630564,-3.5972 c -1.192595,-0.37876 -1.916914,-1.40994 -2.094998,-2.98256 -0.217651,-1.92203 0.24013,-3.67736 1.144574,-4.3888 1.344464,-1.05755 3.100394,-0.68073 4.005828,0.85965 0.409162,0.69609 0.434783,0.84383 0.434783,2.50716 0,1.54913 -0.04502,1.85894 -0.364432,2.50768 -0.586168,1.19055 -1.983432,1.85968 -3.125755,1.49687 z m 29.310818,3.6823 c 1.624612,-0.26389 2.683852,-0.75514 3.637432,-1.68699 1.0624,-1.03819 1.44236,-2.08734 1.31782,-3.63881 -0.18378,-2.2895 -1.42012,-3.24592 -5.554215,-4.29666 -2.634594,-0.66963 -3.368077,-1.26694 -2.522788,-2.05445 0.265731,-0.24757 0.542561,-0.31337 1.318223,-0.31337 0.880282,0 1.028332,0.0465 1.431115,0.44926 0.247094,0.24709 0.44926,0.5929 0.44926,0.76847 0,0.30809 0.07564,0.31921 2.172605,0.31921 h 2.17262 l -0.0969,-0.73005 c -0.32253,-2.42914 -2.28145,-3.94654 -5.35204,-4.14574 -3.882674,-0.25189 -6.487964,1.46554 -6.699075,4.41608 -0.09086,1.26987 0.130803,1.99338 0.856962,2.79715 0.732034,0.81027 1.545285,1.19769 4.076658,1.94204 2.287761,0.67272 3.068437,1.03591 3.151284,1.4661 0.09929,0.51557 -0.133528,1.01174 -0.584057,1.24471 -0.580553,0.30021 -2.04285,0.30032 -2.623237,0 -0.482943,-0.24954 -0.917135,-0.93594 -0.917135,-1.44966 0,-0.30358 -0.08384,-0.31503 -2.305414,-0.31503 h -2.305413 v 0.35634 c 0,0.62632 0.479407,1.99718 0.924873,2.64463 1.233808,1.79328 4.36304,2.72841 7.451462,2.22677 z m 21.056112,-0.31761 c 2.31267,-0.86419 3.94959,-2.7435 4.54456,-5.21752 0.24245,-1.00818 0.23915,-3.15569 -0.006,-4.2265 -0.76343,-3.32793 -3.70951,-5.61559 -7.22159,-5.60766 -4.46443,0.0101 -7.53715,3.17338 -7.53715,7.75929 0,3.73174 2.04772,6.58964 5.36682,7.4902 1.37251,0.37238 3.5673,0.28295 4.85385,-0.19781 z m -3.57241,-3.39118 c -0.77725,-0.22447 -1.53147,-1.0867 -1.82062,-2.08136 -0.35874,-1.23401 -0.24831,-3.26143 0.23165,-4.25288 0.66411,-1.37188 2.1113,-1.94966 3.42636,-1.36794 1.29392,0.57236 1.88281,1.79222 1.87203,3.87782 -0.0109,2.10178 -0.77402,3.44561 -2.17823,3.83559 -0.66582,0.18491 -0.85684,0.18351 -1.53119,-0.0112 z m 23.91101,3.42664 c 1.73401,-0.55299 2.72693,-1.49684 3.34329,-3.1781 0.2486,-0.67812 0.2884,-1.40546 0.33852,-6.1862 l 0.0568,-5.41772 h -2.30792 -2.30793 l -0.0479,5.06094 c -0.0458,4.83669 -0.062,5.08014 -0.36626,5.49457 -0.48376,0.65901 -1.25201,1.00339 -2.02217,0.90645 -0.87067,-0.10958 -1.22164,-0.35297 -1.58295,-1.0977 -0.28222,-0.58173 -0.30316,-0.9612 -0.30316,-5.49457 v -4.86969 h -2.31428 -2.31428 l 0.049,5.49457 c 0.0471,5.27874 0.0626,5.52826 0.39433,6.35207 0.18991,0.47165 0.59081,1.14435 0.89088,1.49493 0.63403,0.74071 2.09124,1.49324 3.31297,1.71086 1.3067,0.23277 4.05266,0.0894 5.18106,-0.27041 z m -83.782192,-6.94361 c 1.202081,-3.8462 2.22852,-7.18512 2.280975,-7.41982 l 0.09537,-0.42674 -2.341444,0.0425 -2.341444,0.0425 -1.183976,4.45713 c -0.718899,2.70633 -1.21935,4.33639 -1.27403,4.14974 -0.04953,-0.16906 -0.513912,-1.89812 -1.031958,-3.84235 -0.518047,-1.94423 -1.029404,-3.81162 -1.136349,-4.14975 l -0.194445,-0.61477 -2.254372,-0.0425 c -1.699852,-0.0321 -2.25437,0.004 -2.25437,0.14577 0,0.10357 0.908129,3.23502 2.018064,6.95877 1.109936,3.72376 2.081917,6.99691 2.15996,7.27365 l 0.141895,0.50319 2.56526,-0.0421 2.565261,-0.0421 z m 97.830122,3.04024 0.041,-4.0297 2.23256,3.99127 2.23256,3.99127 2.263,0.0425 2.26299,0.0425 v -7.4625 -7.4625 l -2.19014,0.0426 -2.19015,0.0427 v 3.87329 c 0,2.13031 -0.0438,3.82479 -0.0974,3.76551 -0.0536,-0.0593 -0.97876,-1.7331 -2.05596,-3.7196 -1.0772,-1.9865 -2.02739,-3.69827 -2.11155,-3.80393 -0.11008,-0.13823 -0.79438,-0.19212 -2.43959,-0.19212 h -2.2866 v 7.45417 7.45417 h 2.14917 2.14917 z m 24.24782,3.6511 c 3.29271,-1.05353 4.81387,-3.31966 4.80111,-7.15243 -0.0134,-4.00403 -1.87812,-6.60182 -5.17516,-7.20929 -0.51135,-0.0942 -2.68872,-0.16803 -4.95664,-0.16803 h -4.04466 v 7.47011 7.47012 l 4.26502,-0.07 c 3.51005,-0.0576 4.41465,-0.11789 5.11033,-0.34048 z m -4.76452,-7.07596 v -3.65407 l 1.34756,0.0768 c 0.95999,0.0547 1.53459,0.17224 1.99785,0.40858 2.2426,1.14409 2.2169,5.26095 -0.0401,6.4346 -0.27537,0.14318 -1.03166,0.2692 -1.88276,0.31372 l -1.42251,0.0744 z M 11.848235,121.19707 11.886845,58.297701 h 93.522945 93.52294 l 0.0386,62.899369 0.0386,62.89936 H 105.40979 11.809626 Z m 62.880547,46.79989 c 6.77743,-20.54388 9.18753,-39.02179 7.542519,-57.82745 C 81.236462,98.3393 78.28189,84.880147 74.114858,73.013925 L 73.561641,71.438559 H 50.200394 c -18.625728,0 -23.346353,0.03894 -23.287763,0.192118 0.440142,1.150684 2.503476,7.692129 3.260213,10.335937 3.249824,11.353913 4.901054,20.838856 5.699145,32.736876 0.133161,1.98517 0.13368,11.5289 7.68e-4,13.52509 -0.941054,14.13019 -3.217366,25.63556 -7.858821,39.72158 -0.628062,1.90596 -1.141903,3.48292 -1.141903,3.50436 0,0.0214 10.508228,0.039 23.351619,0.039 h 23.35162 z m 50.624108,0.1537 c 4.30323,-12.95568 6.6148,-23.96039 7.7562,-36.92504 0.30895,-3.50922 0.25644,-16.83461 -0.0806,-20.44134 -1.17099,-12.532815 -3.56267,-23.702768 -7.82401,-36.540801 l -0.93104,-2.80492 H 100.88456 77.495641 l 0.826362,2.420684 c 4.177678,12.23779 6.881604,24.806233 7.960439,37.001887 0.33601,3.79839 0.466252,13.5943 0.233978,17.59799 -0.764629,13.17984 -3.205973,25.42725 -7.936801,39.81631 -0.543669,1.6536 -0.988489,3.05414 -0.988489,3.11231 0,0.0582 10.496572,0.10577 23.32572,0.10577 h 23.32571 z m 49.98751,1.53694 c 8.82778,-24.65909 10.91832,-47.31025 6.59242,-71.429397 -1.39788,-7.793868 -4.03771,-17.79905 -6.60499,-25.033328 l -0.63393,-1.786316 h -23.25178 -23.25178 l 1.20685,3.665102 c 7.02064,21.321082 9.33662,40.741279 7.2061,60.425399 -1.13609,10.49639 -3.5344,21.21558 -7.23633,32.34263 -0.59242,1.78067 -1.11288,3.32403 -1.15659,3.4297 -0.0634,0.1532 4.63693,0.19212 23.20204,0.19212 h 23.28149 z"
         id="path118"
         inkscape:connector-curvature="0" />
      <path
         style="fill:#545455;stroke-width:0.15369424"
         d="m 11.950884,221.9949 c -0.03522,-0.0352 -0.04613,-7.47019 -0.02424,-16.52214 l 0.0398,-16.45811 h 93.443346 93.44334 l 0.0398,16.45811 c 0.0219,9.05195 0.0109,16.48691 -0.0243,16.52214 -0.0837,0.0837 -186.834051,0.0837 -186.917794,0 z m 24.225782,-8.93369 c 1.804244,-0.46705 3.202868,-1.43549 4.231616,-2.93009 1.086614,-1.57866 1.544194,-3.94593 1.174268,-6.07505 -0.680647,-3.91751 -3.466195,-6.2772 -7.410041,-6.2772 -2.218935,0 -3.995108,0.71001 -5.362553,2.14363 -1.456239,1.52672 -2.091618,3.23219 -2.091618,5.61428 0,2.33987 0.631595,4.07382 2.017764,5.53949 1.766823,1.86816 4.783191,2.67284 7.440564,1.98494 z m -2.388393,-3.55129 c -1.893199,-0.61423 -2.565615,-1.83301 -2.430593,-4.40553 0.08373,-1.59531 0.512119,-2.5632 1.392258,-3.14565 1.179436,-0.78052 2.818614,-0.45028 3.612518,0.7278 0.527677,0.78302 0.691777,1.63053 0.627196,3.23922 -0.05033,1.25372 -0.118936,1.56744 -0.476027,2.17676 -0.22947,0.39157 -0.642609,0.84786 -0.918084,1.014 -0.534102,0.3221 -1.427565,0.5166 -1.807268,0.3934 z M 72.89707,213.063 c 2.587539,-0.67396 4.429789,-2.48745 5.21485,-5.13343 0.15659,-0.52777 0.247681,-1.40779 0.247681,-2.39279 0,-2.42445 -0.609484,-4.06041 -2.091617,-5.61428 -1.367445,-1.43362 -3.143619,-2.14363 -5.362553,-2.14363 -2.182495,0 -3.766894,0.60524 -5.208675,1.98971 -1.026213,0.98542 -1.663743,2.05924 -2.022233,3.40614 -0.278556,1.04657 -0.283907,3.65755 -0.0096,4.6877 0.676401,2.54029 2.76286,4.61887 5.24249,5.22265 1.08636,0.26453 2.928455,0.25434 3.989664,-0.0221 z m -2.627214,-3.59822 c -1.630124,-0.39394 -2.477219,-2.30499 -2.175161,-4.90717 0.217073,-1.87005 1.284506,-3.0059 2.824837,-3.0059 1.691379,0 2.680085,1.25416 2.800727,3.55268 0.137981,2.62888 -0.693882,4.08795 -2.50744,4.39799 -0.253595,0.0434 -0.677928,0.0264 -0.942963,-0.0376 z m 29.658393,3.60565 c 2.877911,-0.60977 4.380981,-2.11863 4.525901,-4.54333 0.0575,-0.96231 0.0107,-1.29566 -0.27541,-1.96072 -0.63049,-1.46561 -1.72804,-2.13019 -4.859335,-2.94237 -2.137646,-0.55446 -2.938505,-0.87777 -3.149126,-1.27132 -0.366116,-0.68409 0.286984,-1.1966 1.523603,-1.19562 0.936672,7.7e-4 1.696531,0.44929 1.821747,1.07537 l 0.0922,0.461 h 2.153911 2.15392 l -0.0896,-0.75649 c -0.31133,-2.62863 -2.54971,-4.16173 -6.076269,-4.16173 -2.893057,0 -5.239933,1.35523 -5.845182,3.37538 -0.242862,0.8106 -0.21633,2.32524 0.05198,2.9674 0.537965,1.28753 1.63515,1.9459 4.821191,2.89296 2.628635,0.78138 3.099005,1.03551 3.099005,1.67429 0,0.88791 -0.9387,1.35656 -2.389644,1.19301 -0.970721,-0.10942 -1.422935,-0.46022 -1.640147,-1.27236 l -0.183707,-0.68686 H 93.36835 91.073406 l 0.09446,0.79758 c 0.328122,2.77048 2.833998,4.53618 6.48036,4.56624 0.676254,0.006 1.702265,-0.09 2.280021,-0.21243 z m 19.652261,0.0586 c 2.50038,-0.51983 4.59065,-2.41056 5.33789,-4.82832 1.11412,-3.60486 -0.0275,-7.44954 -2.75239,-9.26914 -1.20947,-0.80765 -2.19483,-1.11825 -3.85339,-1.21463 -1.62397,-0.0944 -2.74993,0.12802 -4.12096,0.81392 -2.4602,1.23078 -3.8554,3.71508 -3.86139,6.87559 -0.007,3.77641 1.94523,6.54097 5.30018,7.50501 1.07262,0.30822 2.7875,0.35926 3.95006,0.11757 z m -2.54296,-3.74378 c -0.73174,-0.26059 -1.2605,-0.74308 -1.69102,-1.54305 -0.46042,-0.85553 -0.48466,-3.68635 -0.0392,-4.58323 0.8369,-1.68514 2.53609,-2.23107 3.97708,-1.27778 0.28753,0.19023 0.68,0.69632 0.93425,1.20475 0.37334,0.74658 0.43953,1.06597 0.44587,2.15172 0.008,1.43971 -0.1867,2.29901 -0.69237,3.04938 -0.64347,0.95485 -1.87757,1.37464 -2.93457,0.99821 z m 23.15023,3.68694 c 2.00611,-0.42509 3.30969,-1.45283 3.9865,-3.14293 0.32896,-0.82143 0.34561,-1.08863 0.39589,-6.35207 l 0.0525,-5.49457 h -2.3062 -2.30619 l -0.0481,4.95664 c -0.0525,5.41511 -0.0853,5.62049 -0.99155,6.2143 -0.52313,0.34277 -1.7402,0.34239 -2.26381,0 -0.9367,-0.61374 -0.93817,-0.62286 -0.98865,-6.12965 l -0.0462,-5.04129 h -2.3064 -2.30639 l 0.0472,5.57142 0.0472,5.57141 0.44446,0.96241 c 0.967,2.09386 2.91716,3.07319 6.16439,3.0956 0.76079,0.005 1.8522,-0.0898 2.42536,-0.21127 z m -85.268225,-0.23222 c 0.141971,-0.22971 4.535655,-14.34151 4.535655,-14.56778 0,-0.15417 -0.513371,-0.18826 -2.33675,-0.15515 l -2.33675,0.0424 -1.151341,4.34605 c -0.633237,2.39033 -1.197451,4.25771 -1.253811,4.14974 -0.05636,-0.10797 -0.608874,-2.08098 -1.227809,-4.38447 l -1.125339,-4.18817 h -2.370478 c -2.195195,0 -2.362703,0.0199 -2.265324,0.26897 0.05783,0.14793 0.897573,2.93171 1.866083,6.18619 0.968512,3.25447 1.93367,6.48782 2.144797,7.1852 l 0.383867,1.26798 h 2.521944 c 1.48533,0 2.560298,-0.0621 2.615256,-0.15099 z m 99.988815,-3.88348 c 0.006,-2.69425 0.0591,-3.95789 0.15978,-3.80393 0.0829,0.12679 1.0997,1.92502 2.25954,3.99605 l 2.1088,3.7655 2.26539,0.0425 2.26541,0.0425 v -7.45828 -7.45828 h -2.22857 -2.22856 l -0.001,3.88078 -0.001,3.88078 -2.11228,-3.88011 -2.11216,-3.88011 -2.34384,-6.7e-4 -2.34384,-6.7e-4 v 7.45417 7.45417 h 2.15172 2.15172 l 0.009,-4.03447 z m 23.5592,3.81331 c 3.68153,-0.7044 5.5463,-3.17004 5.52848,-7.30986 -0.0105,-2.41931 -0.67778,-4.32601 -1.96446,-5.61269 -1.52823,-1.52823 -2.58228,-1.7594 -8.03575,-1.76236 l -4.18817,-0.002 v 7.45417 7.45417 h 3.75198 c 2.62642,0 4.09877,-0.0663 4.90792,-0.22116 z m -4.04907,-7.25467 v -3.63348 l 1.29858,0.081 c 2.57513,0.16066 3.69364,1.27277 3.63955,3.61873 -0.0293,1.27148 -0.29185,2.03103 -0.91843,2.65715 -0.63526,0.63478 -1.5745,0.91007 -3.1051,0.91007 h -0.9146 z M 11.924896,121.23524 11.962947,58.374045 h 93.446843 93.44683 l 0.038,62.861195 0.0381,62.86119 H 105.40979 11.886845 Z m 62.342801,48.22182 c 4.266132,-12.28393 7.07078,-25.23633 8.078759,-37.30928 1.538906,-18.43204 -0.906318,-36.923272 -7.564678,-57.205458 L 73.65677,71.515406 50.264401,71.476491 c -12.865803,-0.02141 -23.392368,-0.02085 -23.392368,0.0012 0,0.02208 0.48964,1.52658 1.088092,3.343341 7.177805,21.790212 9.455426,41.252038 7.203596,61.553318 -1.096092,9.88178 -3.669179,21.11561 -7.360538,32.13534 -0.512132,1.52886 -0.93115,2.82566 -0.93115,2.88177 0,0.0561 10.504893,0.10203 23.344208,0.10203 h 23.344208 z m 50.937753,-0.76847 c 4.55125,-13.62482 6.97641,-25.31785 7.94521,-38.30829 0.30991,-4.15547 0.30786,-13.65322 -0.004,-17.87145 -0.93102,-12.598767 -3.35826,-24.399481 -7.77578,-37.804289 l -1.0763,-3.266002 H 100.89193 77.489151 l 0.597242,1.72906 c 0.328481,0.950983 1.047747,3.180645 1.598368,4.954806 7.577015,24.414015 8.948671,46.424285 4.343761,69.702165 -1.334521,6.74602 -3.249746,13.85188 -5.648241,20.95608 l -0.915901,2.71284 h 23.40205 23.40206 z m 49.98452,1.46009 c 5.09431,-13.89207 8.0378,-27.85529 8.77209,-41.61271 0.19804,-3.71026 0.1073,-12.6919 -0.16071,-15.90736 -0.88544,-10.623 -2.59982,-19.910612 -5.60308,-30.354607 -0.87766,-3.052093 -3.22529,-10.311032 -3.44235,-10.643824 -0.1,-0.153238 -4.87046,-0.184658 -23.33496,-0.153695 l -23.20933,0.03892 1.13297,3.45812 c 4.40598,13.448215 6.72595,24.833966 7.75092,38.039326 0.21395,2.75641 0.2701,13.03757 0.0861,15.75366 -0.61807,9.12085 -2.1832,19.02484 -4.2626,26.97334 -1.27344,4.86773 -2.30292,8.33069 -3.8366,12.90551 -0.50921,1.51894 -0.92584,2.78115 -0.92584,2.80492 0,0.0238 10.47157,0.0432 23.27014,0.0432 h 23.27015 z"
         id="path116"
         inkscape:connector-curvature="0" />
      <path
         style="fill:#2e2f31;stroke-width:0.15369424"
         d="m 11.963692,205.53678 v -16.52213 h 93.446098 93.44609 v 16.52213 16.52213 H 105.40979 11.963692 Z m 24.263561,7.53827 c 2.571303,-0.68437 4.415835,-2.49086 5.186143,-5.07916 0.404239,-1.35828 0.377038,-3.67872 -0.05967,-5.09036 -0.669588,-2.16441 -2.266521,-3.90068 -4.303328,-4.67878 -1.079524,-0.4124 -3.438329,-0.57106 -4.644448,-0.31239 -2.641412,0.56648 -4.733521,2.61516 -5.466338,5.35285 -0.307578,1.14906 -0.304579,3.40111 0.0061,4.56246 0.527926,1.97362 2.023624,3.894 3.640755,4.6745 1.596676,0.77062 3.982972,1.01214 5.640812,0.57088 z m -3.373183,-3.96854 c -1.139672,-0.76802 -1.590806,-1.9611 -1.49593,-3.95617 0.112223,-2.35986 1.069693,-3.57667 2.814369,-3.57667 1.102422,0 1.897287,0.50704 2.402064,1.53229 0.316499,0.64283 0.364432,0.96255 0.364432,2.43082 0,1.46543 -0.04826,1.78863 -0.362247,2.42631 -0.506026,1.02768 -1.235335,1.49289 -2.340351,1.49289 -0.64392,0 -0.995743,-0.0889 -1.382337,-0.34947 z m 40.086898,3.97362 c 2.530509,-0.67366 4.407262,-2.54212 5.173432,-5.15056 0.153778,-0.52354 0.24452,-1.41177 0.243377,-2.38226 -0.0029,-2.47913 -0.52217,-3.93091 -1.962279,-5.4864 -1.463415,-1.58066 -3.157708,-2.28569 -5.492874,-2.28569 -2.202447,0 -3.952062,0.66993 -5.32377,2.03848 -0.884542,0.88251 -1.379822,1.70526 -1.819626,3.02275 -0.464024,1.39004 -0.461849,3.96994 0.0046,5.38998 0.79223,2.41212 2.634294,4.18397 5.038031,4.84601 0.970668,0.26735 3.148603,0.27139 4.139165,0.008 z m -3.319001,-3.87637 c -1.088562,-0.55433 -1.639957,-2.0304 -1.531365,-4.09937 0.136359,-2.59796 1.505033,-3.95528 3.485569,-3.45666 1.404781,0.35367 2.172603,1.73172 2.172603,3.8993 0,1.47279 -0.350772,2.50931 -1.09519,3.2362 -0.541112,0.52839 -0.68282,0.58595 -1.555979,0.63206 -0.683621,0.0361 -1.109156,-0.0249 -1.475638,-0.21153 z m 30.331674,3.88437 c 2.062889,-0.4461 3.351589,-1.31507 4.063729,-2.74018 0.60154,-1.2038 0.66155,-2.79375 0.14679,-3.88887 -0.65649,-1.39662 -1.82101,-2.06859 -5.013662,-2.89306 -2.09632,-0.54135 -2.678748,-0.80372 -2.962916,-1.33469 -0.135277,-0.25277 -0.09592,-0.37756 0.218148,-0.69163 0.312205,-0.3122 0.534004,-0.3831 1.197089,-0.38263 1.027994,7.7e-4 1.742168,0.4034 1.887285,1.06411 l 0.103725,0.47226 h 2.139511 2.1395 v -0.43319 c 0,-0.79535 -0.44831,-1.95567 -1.00845,-2.61007 -1.08397,-1.26637 -2.73956,-1.87628 -5.084652,-1.87313 -3.915071,0.005 -6.185805,1.94525 -6.024137,5.14672 0.04874,0.96518 0.125968,1.22589 0.531506,1.79429 0.626869,0.87861 2.307608,1.72636 4.774285,2.40811 2.259677,0.62455 2.815402,0.927 2.815402,1.53229 0,0.72827 -0.610586,1.1584 -1.734026,1.22152 -1.351088,0.0759 -1.957952,-0.25596 -2.250697,-1.23089 l -0.219215,-0.73005 H 93.37313 91.073406 l 0.09446,0.79758 c 0.331222,2.79665 2.839709,4.54244 6.557207,4.56352 0.71852,0.004 1.721375,-0.0823 2.228566,-0.19201 z m 19.883279,-0.0131 c 2.82839,-0.7528 4.70475,-2.78101 5.33874,-5.77079 0.82492,-3.89018 -1.10794,-7.77572 -4.5156,-9.07751 -1.11049,-0.42424 -3.47874,-0.5755 -4.66568,-0.29801 -2.68249,0.62714 -4.71847,2.61696 -5.43843,5.31514 -0.30971,1.1607 -0.31271,3.41401 -0.006,4.56247 0.70328,2.63401 2.59818,4.55616 5.17469,5.24907 1.07353,0.2887 3.06568,0.29821 4.11235,0.0196 z m -3.29793,-3.90969 c -1.12009,-0.68303 -1.66598,-2.0644 -1.57691,-3.99037 0.10495,-2.26926 1.20906,-3.62999 2.92441,-3.60412 1.26449,0.0191 2.22253,0.85123 2.60196,2.26006 0.0936,0.34773 0.14107,1.28416 0.10583,2.09008 -0.0752,1.71944 -0.41609,2.53719 -1.3113,3.14551 -0.7265,0.49366 -2.0201,0.54026 -2.74399,0.0988 z m 23.74607,3.89609 c 1.97211,-0.46485 3.2223,-1.47121 3.89112,-3.1322 0.33172,-0.82382 0.34721,-1.07334 0.39433,-6.35208 l 0.049,-5.49456 h -2.30464 -2.30464 l -0.0481,4.95664 c -0.0423,4.36649 -0.08,5.01499 -0.31615,5.44681 -0.40666,0.74356 -0.83576,0.96992 -1.83855,0.96992 -0.74924,0 -0.95815,-0.0651 -1.35721,-0.42266 -0.282,-0.25269 -0.52872,-0.66988 -0.61354,-1.03744 -0.078,-0.33812 -0.14352,-2.70694 -0.14553,-5.26402 l -0.004,-4.64927 h -2.31257 -2.31257 l 0.0456,5.57142 0.0456,5.57141 0.43098,0.92217 c 0.74156,1.58671 1.85685,2.45024 3.76067,2.91174 1.18866,0.28814 3.72177,0.28922 4.93984,0.002 z m -83.372223,-6.41041 c 1.087162,-3.48693 2.133707,-6.84304 2.325652,-7.45801 l 0.348992,-1.11814 -2.409092,0.0423 -2.409095,0.0423 -1.151921,4.33392 c -0.633558,2.38365 -1.193539,4.25104 -1.244401,4.14974 -0.05086,-0.1013 -0.600375,-2.06885 -1.22114,-4.37234 l -1.128662,-4.18817 h -2.370358 c -2.006216,0 -2.357236,0.0342 -2.284942,0.22259 0.04698,0.12243 0.853827,2.80247 1.792994,5.95565 0.939169,3.15318 1.913956,6.4074 2.166194,7.23158 l 0.458616,1.49852 h 2.57525 2.575252 z m 97.998583,2.26699 -0.008,-3.99605 0.53609,0.92217 c 0.29484,0.50719 1.31414,2.32141 2.2651,4.0316 l 1.72903,3.10942 2.26699,0.003 2.26699,0.003 v -7.45417 -7.45417 h -2.22857 -2.22857 l -0.001,3.88078 -0.001,3.88078 -2.11085,-3.88086 -2.11099,-3.88078 h -2.34498 -2.34498 v 7.45839 7.45839 l 2.16193,-0.0426 2.16193,-0.0427 -0.008,-3.99605 z m 24.5862,3.64231 c 2.0459,-0.67292 3.52213,-2.15381 4.15987,-4.17303 0.42424,-1.3432 0.45974,-4.12328 0.0697,-5.45679 -0.75471,-2.58012 -2.14177,-4.00521 -4.49491,-4.61812 -0.68059,-0.17727 -1.85876,-0.22981 -5.15344,-0.22981 h -4.27115 v 7.46836 7.46835 l 4.34186,-0.064 c 3.92772,-0.0579 4.43785,-0.0956 5.34809,-0.39497 z m -4.96385,-3.49713 c -0.0634,-0.0658 -0.11527,-1.70852 -0.11527,-3.65058 v -3.53101 l 1.3147,0.082 c 1.80767,0.11278 2.59125,0.52014 3.19068,1.65876 0.40887,0.77668 0.43689,0.93761 0.37982,2.18272 -0.0544,1.18619 -0.1151,1.42109 -0.51667,1.99803 -0.61304,0.88078 -1.34048,1.20991 -2.88048,1.30334 -0.69164,0.042 -1.30938,0.0225 -1.37278,-0.0433 z M 11.963692,121.23549 V 58.374549 h 93.446098 93.44609 v 62.860941 62.86094 H 105.40979 11.963692 Z m 61.909906,49.45112 c 0.165332,-0.44379 0.693919,-2.01723 1.174636,-3.49654 10.447629,-32.15036 10.349747,-60.09995 -0.32362,-92.408662 L 73.569511,71.284865 H 50.220772 c -20.491597,0 -23.348739,0.02778 -23.348739,0.227032 0,0.124869 0.174499,0.690637 0.387778,1.257265 0.213278,0.566628 0.898665,2.660369 1.523082,4.65276 7.36854,23.511508 9.026817,44.318898 5.298507,66.483468 -1.244748,7.39995 -3.311474,15.57127 -5.988482,23.67696 -0.671487,2.03319 -1.220885,3.74496 -1.220885,3.80393 0,0.059 10.507716,0.10723 23.35048,0.10723 h 23.350481 z m 51.596082,-2.76649 c 4.50916,-13.79908 6.66117,-24.36399 7.74055,-38.0009 0.31607,-3.99315 0.315,-13.11821 -0.002,-16.82952 -0.0686,-0.80306 -0.19929,-2.35921 -0.29045,-3.45812 -0.86532,-10.431357 -3.56371,-22.969593 -7.43397,-34.542505 l -1.24652,-3.727363 -23.20783,-0.03948 c -12.764305,-0.02171 -23.283846,-0.0106 -23.376757,0.0247 -0.107022,0.04066 0.220445,1.237085 0.893601,3.26483 4.576698,13.786354 6.959217,25.657858 7.953565,39.630638 0.136008,1.91121 0.08004,13.99467 -0.07297,15.75366 -1.069653,12.29681 -2.598637,20.60484 -5.840942,31.73786 -0.815404,2.79984 -2.644086,8.45124 -3.070976,9.49062 -0.104924,0.25547 1.066516,0.26897 23.338249,0.26897 h 23.44872 z m 49.56801,2.68965 c 1.52058,-4.02472 4.10185,-12.41817 5.14019,-16.71425 0.76838,-3.17916 0.84793,-3.53931 1.46938,-6.65234 0.95679,-4.79291 1.59286,-9.40569 2.17686,-15.78702 0.31085,-3.39659 0.26158,-15.99013 -0.077,-19.67286 -1.18457,-12.885636 -3.42087,-23.453712 -7.73048,-36.53211 l -1.307,-3.966325 H 151.4331 c -12.80211,0 -23.27657,0.03732 -23.27657,0.08293 0,0.04561 0.41029,1.307823 0.91175,2.80492 4.40656,13.155581 6.88471,24.9875 7.94179,37.917965 0.35544,4.34774 0.35455,14.37175 -0.002,18.7507 -0.87003,10.69564 -2.53365,19.74604 -5.56184,30.25747 -0.656,2.27707 -2.79293,8.98389 -3.25075,10.20254 -0.0575,0.15317 4.64981,0.19212 23.2179,0.19212 h 23.29008 l 0.33388,-0.88374 z"
         id="path114"
         inkscape:connector-curvature="0" />
      <path
         style="fill:#000000;stroke-width:0.15369424"
         d="M 11.963692,205.49836 V 189.0915 h 93.446098 93.44609 v 16.40686 16.40686 H 105.40979 11.963692 Z m 25.086706,7.35099 c 2.000496,-0.77001 3.562207,-2.43949 4.286191,-4.58201 0.447591,-1.32456 0.487612,-3.93973 0.08085,-5.28315 -0.988919,-3.2661 -3.691171,-5.20897 -7.244929,-5.20897 -3.973542,0 -6.723802,2.33116 -7.410042,6.28085 -0.720815,4.14869 1.482894,7.9681 5.197556,9.00826 1.229722,0.34433 3.933981,0.23012 5.090374,-0.21498 z m -4.196328,-3.74284 c -0.986821,-0.66502 -1.524905,-1.92465 -1.524905,-3.56973 0,-2.37487 1.117087,-3.92219 2.827649,-3.91667 1.10413,0.004 1.888484,0.48077 2.388927,1.45346 0.351899,0.68397 0.393264,0.94263 0.393264,2.45911 0,1.57376 -0.0311,1.75084 -0.435659,2.48064 -0.544929,0.98301 -1.299228,1.44266 -2.367458,1.44266 -0.539367,0 -0.915349,-0.10249 -1.281818,-0.34947 z m 40.175477,3.96203 c 1.292387,-0.33664 2.057718,-0.77753 3.119541,-1.79715 1.219992,-1.17149 1.86075,-2.44836 2.184948,-4.35405 0.221754,-1.30351 0.22076,-1.53786 -0.0121,-2.85159 -0.578671,-3.26471 -2.64802,-5.52978 -5.614606,-6.14564 -1.264006,-0.26241 -3.589,-0.11006 -4.679789,0.30664 -2.009883,0.76782 -3.628775,2.50885 -4.274807,4.59734 -1.401761,4.53159 0.814593,9.12159 4.94021,10.23103 1.093178,0.29397 3.234044,0.30059 4.336602,0.0134 z m -3.442555,-3.96203 c -1.061078,-0.71506 -1.522642,-1.79936 -1.524047,-3.58026 -0.002,-2.48018 1.036878,-3.90867 2.842486,-3.90867 1.670435,0 2.665952,1.22667 2.805059,3.45637 0.125956,2.01892 -0.48587,3.54829 -1.663028,4.15701 -0.673265,0.34816 -1.847282,0.28878 -2.46047,-0.12445 z m 30.563608,3.95967 c 2.90323,-0.68449 4.35623,-2.32022 4.35623,-4.90413 0,-2.49252 -1.35821,-3.62647 -5.629049,-4.69958 -2.088681,-0.52481 -2.612802,-0.82023 -2.612802,-1.4727 0,-0.77399 1.301752,-1.09621 2.465022,-0.61017 0.519233,0.21695 0.940624,0.87203 0.754587,1.17304 -0.05118,0.0828 0.834652,0.1408 2.150622,0.1408 h 2.23763 v -0.51055 c 0,-1.55995 -1.30695,-3.28271 -3.0018,-3.9568 -0.81206,-0.32298 -1.164472,-0.36488 -3.069118,-0.36488 -1.904647,0 -2.25706,0.0419 -3.069122,0.36488 -1.1948,0.47521 -2.388035,1.64495 -2.744164,2.69012 -0.344563,1.01124 -0.329925,2.60224 0.03126,3.39738 0.549141,1.20892 1.492931,1.76696 4.475629,2.64629 2.783883,0.82073 3.194671,1.00507 3.315899,1.48809 0.124594,0.49641 -0.258208,1.11565 -0.826406,1.33681 -0.512151,0.19936 -2.018928,0.0831 -2.455341,-0.18944 -0.355659,-0.22212 -0.576827,-0.60895 -0.716748,-1.25364 l -0.09173,-0.42266 h -2.323988 -2.323989 l 0.08689,0.84189 c 0.213712,2.07066 1.857882,3.70917 4.3364,4.32144 1.069857,0.26428 3.500322,0.25582 4.654088,-0.0162 z m 19.77792,-0.003 c 3.93599,-1.0252 6.17306,-5.06604 5.24045,-9.46589 -0.49548,-2.33755 -1.9473,-4.19182 -4.04391,-5.16487 -1.05442,-0.48936 -1.36781,-0.56092 -2.72984,-0.62331 -1.81467,-0.0831 -2.93993,0.1172 -4.20255,0.74814 -3.60817,1.80302 -5.01552,6.95992 -2.99017,10.95675 0.81858,1.6154 2.61046,3.06929 4.36382,3.5407 1.10445,0.29694 3.23879,0.30109 4.3622,0.008 z m -3.3759,-3.89278 c -0.97941,-0.60497 -1.4039,-1.43792 -1.55359,-3.04848 -0.17872,-1.92298 0.34462,-3.39642 1.4804,-4.16796 0.44895,-0.30497 0.68259,-0.3538 1.46297,-0.30579 1.15152,0.0709 1.75183,0.46337 2.24726,1.46938 0.31028,0.63002 0.35901,0.95847 0.35901,2.41961 0,1.46323 -0.0485,1.78912 -0.36058,2.42285 -0.65784,1.3359 -2.46061,1.9361 -3.63547,1.21039 z m 23.82874,3.89134 c 1.6968,-0.43897 2.6834,-1.11616 3.40219,-2.33525 0.74829,-1.26911 0.81448,-1.87362 0.81644,-7.45632 l 0.002,-5.18718 h -2.30542 -2.30541 v 4.44957 c 0,4.94631 -0.10473,5.82262 -0.77609,6.49398 -0.37512,0.37512 -0.54718,0.42982 -1.35202,0.42982 -0.75806,0 -1.00301,-0.068 -1.37628,-0.38208 -0.71649,-0.6029 -0.79905,-1.26125 -0.79905,-6.37167 v -4.61962 h -2.30541 -2.30542 v 5.34946 c 0,5.01917 0.0198,5.40814 0.321,6.29996 0.57247,1.69519 1.94838,2.87798 3.89922,3.35192 1.13088,0.27475 3.98409,0.26207 5.08442,-0.0226 z M 57.193772,205.7944 c 1.237667,-3.9581 2.29479,-7.31248 2.349162,-7.45417 0.08993,-0.23436 -0.121298,-0.25762 -2.339387,-0.25762 h -2.438246 l -0.827566,3.11231 c -0.455163,1.71177 -0.98024,3.69346 -1.166841,4.40376 l -0.339273,1.29146 -0.343979,-1.29146 c -0.189188,-0.7103 -0.644014,-2.39805 -1.010726,-3.75056 -0.366711,-1.35251 -0.743732,-2.75305 -0.837825,-3.11231 l -0.171077,-0.6532 h -2.39278 c -1.849558,0 -2.376692,0.0436 -2.321914,0.19212 0.03898,0.10566 0.398499,1.29871 0.798938,2.65122 1.318635,4.45378 3.474171,11.67714 3.543007,11.87288 0.05044,0.14343 0.724121,0.19212 2.657881,0.19212 h 2.590321 z m 97.825888,3.27421 c -0.0293,-2.64378 0.007,-3.85285 0.11021,-3.70915 0.0845,0.11726 1.08739,1.88128 2.22857,3.92004 l 2.07487,3.70684 2.26699,0.002 2.26699,0.002 v -7.45417 -7.45417 h -2.22857 -2.22856 l -9.3e-4,3.88078 c -7.6e-4,3.3012 -0.0311,3.82339 -0.20323,3.49654 -0.11125,-0.21133 -1.05276,-1.95768 -2.09224,-3.88078 l -1.88998,-3.49654 h -2.36395 -2.36394 v 7.45417 7.45417 h 2.23363 2.23362 z m 24.66738,3.43376 c 1.38424,-0.52969 2.12901,-1.04226 2.86221,-1.96982 2.29968,-2.90929 1.92371,-8.6093 -0.72102,-10.9314 -0.30568,-0.26839 -1.00861,-0.70256 -1.56207,-0.96483 l -1.00629,-0.47686 -4.7261,-0.0502 -4.7261,-0.0502 v 7.47823 7.47823 l 4.41871,-0.0573 c 4.31781,-0.056 4.4425,-0.0664 5.46066,-0.45598 z m -5.23301,-7.00401 0.0413,-3.49655 0.53793,-0.0536 c 0.29587,-0.0295 0.99439,0.0268 1.55229,0.1251 1.81809,0.32024 2.74133,1.46331 2.74777,3.40207 0.006,1.65166 -0.48599,2.67767 -1.54038,3.21557 -0.46365,0.23655 -0.90432,0.30391 -1.98796,0.30391 h -1.39226 z M 11.963692,121.23549 V 58.374549 h 93.446098 93.44609 v 62.860941 62.86094 H 105.40979 11.963692 Z m 62.957151,46.34022 c 4.43336,-13.46017 6.820019,-25.39349 7.700344,-38.50181 0.152795,-2.27519 0.154069,-12.91337 0.0018,-15.21573 C 82.015414,104.66996 80.544887,95.5404 78.204055,86.423747 77.19964,82.511935 74.708681,74.314209 73.802436,71.938065 l -0.249126,-0.6532 H 50.238284 c -12.823265,0 -23.350081,0.03505 -23.392923,0.07789 -0.04284,0.04284 0.157545,0.751757 0.445309,1.575366 0.680651,1.948107 2.48305,7.732405 3.172479,10.181195 2.56998,9.128345 4.319131,18.718984 5.101619,27.972354 0.33543,3.96664 0.459898,12.975 0.235719,17.06005 -0.734134,13.37758 -3.328748,26.38443 -8.086411,40.53735 l -0.943071,2.80541 23.44237,-0.0389 23.44237,-0.0389 1.265091,-3.84095 z m 49.820787,2.57297 c 3.47895,-10.04021 6.19466,-21.01622 7.40584,-29.93195 0.763,-5.61654 1.02634,-8.58209 1.26052,-14.19505 0.25254,-6.05323 -0.0452,-13.40881 -0.80038,-19.77138 -1.24,-10.447656 -3.60967,-20.749926 -7.39739,-32.160516 l -0.93108,-2.804919 h -23.4373 c -18.686489,0 -23.422423,0.03894 -23.363941,0.192117 0.04034,0.105665 0.600156,1.795961 1.244032,3.756212 9.752156,29.690016 10.471778,55.960386 2.324476,84.856736 -0.685472,2.43119 -3.209336,10.39367 -3.553691,11.21146 -0.06451,0.15321 4.664803,0.19212 23.351014,0.19212 h 23.43191 z m 50.69812,-0.57635 c 4.49133,-12.33976 7.40453,-25.49201 8.34051,-37.65509 0.28304,-3.67819 0.33089,-5.11707 0.32832,-9.87255 -0.003,-5.49663 -0.16181,-8.81372 -0.63489,-13.25843 -1.25068,-11.750236 -4.15027,-24.455987 -8.15909,-35.752335 l -0.6207,-1.74906 h -23.26868 c -12.79778,0 -23.26869,0.0451 -23.26869,0.100211 0,0.05512 0.51911,1.68012 1.15357,3.611122 2.55103,7.764119 4.64285,15.869004 5.84508,22.647228 2.49606,14.072794 2.82027,27.320064 1.00806,41.190054 -1.18441,9.06501 -3.56805,19.18343 -6.82358,28.96568 -0.60588,1.82056 -1.12506,3.39679 -1.15373,3.50272 -0.0416,0.15387 4.63905,0.18479 23.2652,0.1537 l 23.31733,-0.0389 z"
         id="path112"
         inkscape:connector-curvature="0" />
    </g>
  </g>
</svg>
